<svg id="Layer_1" enable-background="new 0 0 256 256" height="512" viewBox="0 0 256 256" width="512" xmlns="http://www.w3.org/2000/svg"><path d="m160.173 155.091h-146.798v-114.864c0-3.314 2.686-6 6-6h134.798c3.314 0 6 2.686 6 6z" fill="#4671c6"/><path d="m216.427 63.663 12.007 32.275 11.11 6.189c1.901 1.059 3.08 3.065 3.08 5.242v47.722h-82.452v-96.639h48.756c3.344 0 6.334 2.078 7.499 5.211z" fill="#a4c9ff"/><path d="m172.826 69.076h32.324c1.782 0 3.349 1.179 3.843 2.891l7.693 26.667c.738 2.557-1.182 5.109-3.843 5.109h-40.017c-2.209 0-4-1.791-4-4v-26.667c0-2.209 1.791-4 4-4z" fill="#e0ebfc"/><path d="m160.173 157.091h-146.798c-1.104 0-2-.896-2-2v-114.863c0-4.411 3.589-8 8-8h134.798c4.411 0 8 3.589 8 8v114.863c0 1.104-.896 2-2 2zm-144.798-4h142.798v-112.863c0-2.206-1.794-4-4-4h-134.798c-2.206 0-4 1.794-4 4z" fill="#3762cc"/><path d="m242.625 157.091h-82.452c-1.104 0-2-.896-2-2v-96.639c0-1.104.896-2 2-2h48.757c4.156 0 7.923 2.618 9.372 6.514l11.75 31.584 10.467 5.83c2.533 1.411 4.106 4.09 4.106 6.989v47.722c0 1.104-.896 2-2 2zm-80.452-4h78.452v-45.722c0-1.45-.787-2.789-2.054-3.495l-11.11-6.188c-.415-.231-.735-.604-.9-1.05l-12.008-32.276h-.001c-.869-2.338-3.128-3.908-5.622-3.908h-46.757z" fill="#3762cc"/><path d="m245.31 119.742h-2.466-.219-16.406c-2.209 0-4 1.791-4 4v11c0 2.209 1.791 4 4 4h16.406.219 2.466c1.486 0 2.69-1.204 2.69-2.69v-13.62c0-1.485-1.204-2.69-2.69-2.69z" fill="#ffea92"/><path d="m245.31 140.742h-19.091c-3.309 0-6-2.691-6-6v-11c0-3.309 2.691-6 6-6h19.091c2.586 0 4.69 2.104 4.69 4.69v13.62c0 2.587-2.104 4.69-4.69 4.69zm-19.091-19c-1.103 0-2 .897-2 2v11c0 1.103.897 2 2 2h19.091c.381 0 .69-.31.69-.689v-13.62c0-.381-.31-.69-.69-.69h-19.091z" fill="#3762cc"/><path d="m242 181.424h-228c-3.314 0-6-2.686-6-6v-14.333c0-3.314 2.686-6 6-6h228c3.314 0 6 2.686 6 6v14.333c0 3.314-2.686 6-6 6z" fill="#6bdddd"/><path d="m242 183.424h-228c-4.411 0-8-3.589-8-8v-14.333c0-4.411 3.589-8 8-8h228c4.411 0 8 3.589 8 8v14.333c0 4.411-3.589 8-8 8zm-228-26.333c-2.206 0-4 1.794-4 4v14.333c0 2.206 1.794 4 4 4h228c2.206 0 4-1.794 4-4v-14.333c0-2.206-1.794-4-4-4z" fill="#3762cc"/><circle cx="61.865" cy="191.758" fill="#4671c6" r="29.133"/><path d="m61.865 207.424c-8.639 0-15.667-7.028-15.667-15.667s7.028-15.666 15.667-15.666 15.667 7.027 15.667 15.666-7.029 15.667-15.667 15.667z" fill="#f9cfcf"/><circle cx="201.865" cy="191.758" fill="#4671c6" r="29.133"/><path d="m201.865 207.424c-8.639 0-15.667-7.028-15.667-15.667s7.028-15.666 15.667-15.666 15.667 7.027 15.667 15.666-7.029 15.667-15.667 15.667z" fill="#f9cfcf"/><g fill="#3762cc"><path d="m212.843 105.742h-40.017c-3.309 0-6-2.691-6-6v-26.666c0-3.309 2.691-6 6-6h32.324c2.658 0 5.029 1.783 5.765 4.337l7.693 26.666c.527 1.829.173 3.75-.971 5.271-1.144 1.52-2.891 2.392-4.794 2.392zm-40.017-34.666c-1.103 0-2 .897-2 2v26.666c0 1.103.897 2 2 2h40.017c.635 0 1.217-.291 1.599-.798.381-.507.499-1.146.323-1.757l-7.693-26.666c-.245-.852-1.035-1.445-1.921-1.445z"/><path d="m61.865 222.891c-17.167 0-31.134-13.966-31.134-31.133s13.967-31.134 31.134-31.134 31.133 13.967 31.133 31.134-13.966 31.133-31.133 31.133zm0-58.267c-14.962 0-27.134 12.172-27.134 27.134 0 14.961 12.172 27.133 27.134 27.133 14.961 0 27.133-12.172 27.133-27.133 0-14.962-12.172-27.134-27.133-27.134z"/><path d="m61.865 209.424c-9.741 0-17.667-7.926-17.667-17.667s7.926-17.666 17.667-17.666 17.667 7.925 17.667 17.666-7.926 17.667-17.667 17.667zm0-31.333c-7.536 0-13.667 6.131-13.667 13.666 0 7.536 6.131 13.667 13.667 13.667s13.667-6.131 13.667-13.667c0-7.535-6.131-13.666-13.667-13.666z"/><path d="m201.865 222.891c-17.167 0-31.134-13.966-31.134-31.133s13.967-31.134 31.134-31.134 31.133 13.967 31.133 31.134-13.966 31.133-31.133 31.133zm0-58.267c-14.962 0-27.134 12.172-27.134 27.134 0 14.961 12.172 27.133 27.134 27.133 14.961 0 27.133-12.172 27.133-27.133 0-14.962-12.172-27.134-27.133-27.134z"/><path d="m201.865 209.424c-9.741 0-17.667-7.926-17.667-17.667s7.926-17.666 17.667-17.666 17.667 7.925 17.667 17.666-7.926 17.667-17.667 17.667zm0-31.333c-7.536 0-13.667 6.131-13.667 13.666 0 7.536 6.131 13.667 13.667 13.667s13.667-6.131 13.667-13.667c0-7.535-6.131-13.666-13.667-13.666z"/></g><path d="m144.986 103.473h-99.035c-1.458 0-2.64-1.182-2.64-2.64 0-1.458 1.182-2.64 2.64-2.64h99.036c1.458 0 2.64 1.182 2.64 2.64-.001 1.459-1.183 2.64-2.641 2.64z" fill="#a4c9ff"/><path d="m140.981 98.194h-91.025c0-24.13 19.562-43.692 43.692-43.692h3.641c24.13 0 43.692 19.561 43.692 43.692z" fill="#e0ebfc"/><path d="m101.698 52.398h-12.459v-3.335c0-3.44 2.789-6.229 6.229-6.229 3.44 0 6.229 2.789 6.229 6.229v3.335z" fill="#e0ebfc"/><path d="m91.987 52.398v2.146c.552-.021 1.104-.042 1.661-.042h3.641c.557 0 1.109.021 1.661.042v-2.146z" fill="#a4c9ff"/><path d="m122.721 107.237c-1.984-3.409-6.379-4.576-9.815-2.608l-16.353 9.364c-1.153.66-2.501.894-3.808.66l-21.335-3.809-2.965-.339h17.509c3.936 0 7.126-3.191 7.126-7.126 0-1.237-1.003-2.24-2.24-2.24h-20.241c-1.419 0-2.821.308-4.109.902l-13.279 6.128c-2.075.958-4.334 1.454-6.619 1.454h-.45v18.732h3.919l44.643-3.92c.032-.003.064-.005.096-.008l1.288-.105c1.055-.108 2.075-.436 2.995-.963l22.812-13.063c1.08-.618 1.45-1.988.826-3.059z" fill="#f9cfcf"/><path d="m39.263 134.319h-13.34v-32.35h13.34c.673 0 1.218.545 1.218 1.218v29.915c-.001.672-.546 1.217-1.218 1.217z" fill="#a4c9ff"/><path d="m45.036 105.204h-4.556v26.689h4.555c.611 0 1.106-.495 1.106-1.106v-24.477c.001-.611-.495-1.106-1.105-1.106z" fill="#e0ebfc"/></svg>