<svg id="Layer_1" enable-background="new 0 0 256 256" height="512" viewBox="0 0 256 256" width="512" xmlns="http://www.w3.org/2000/svg"><path d="m128.029 55.332c21.742 0 41.484-2.401 56.118-6.309-14.634-13.853-34.376-22.366-56.118-22.366s-41.484 8.513-56.118 22.366c14.635 3.907 34.376 6.309 56.118 6.309z" fill="#e0ebfc"/><path d="m128.029 55.332c14.972 0 28.995-1.139 41.055-3.124-10.304-15.723-24.878-25.548-41.049-25.55-.002 0-.004 0-.006 0s-.004 0-.006 0c-16.171.002-30.745 9.827-41.049 25.55 12.06 1.985 26.083 3.124 41.055 3.124z" fill="#4671c6"/><path d="m128.029 55.332c5.972 0 11.784-.187 17.39-.531-4.223-17.232-10.444-28.143-17.388-28.144h-.001s-.001 0-.001 0c-6.944.001-13.165 10.912-17.388 28.144 5.604.343 11.417.531 17.388.531z" fill="#6bdddd"/><path d="m128.029 80.674c30.765 0 57.536-4.801 71.458-11.89-4.083-7.363-9.274-14.019-15.342-19.763-14.628 3.91-34.371 6.311-56.116 6.311s-41.488-2.401-56.116-6.311c-6.068 5.745-11.259 12.401-15.342 19.763 13.922 7.089 40.693 11.89 71.458 11.89z" fill="#6bdddd"/><path d="m86.974 52.207c-4.43 6.759-8.067 14.606-10.7 23.241 14.085 3.264 32.102 5.225 51.755 5.225s37.67-1.961 51.755-5.225c-2.633-8.636-6.27-16.482-10.7-23.241-12.058 1.985-26.082 3.124-41.055 3.124-14.973.001-28.997-1.138-41.055-3.124z" fill="#e0ebfc"/><path d="m110.64 54.801c-1.796 7.327-3.232 15.788-4.204 25.056 6.878.531 14.116.817 21.593.817s14.715-.286 21.593-.817c-.972-9.268-2.408-17.729-4.204-25.056-5.605.344-11.418.531-17.39.531s-11.783-.187-17.388-.531z" fill="#4671c6"/><path d="m128.029 80.674c-30.754 0-57.516-4.798-71.442-11.882-3.411 6.146-6.063 12.772-7.801 19.764 8.84 10.027 40.959 17.459 79.244 17.459s70.404-7.432 79.244-17.459c-1.739-6.992-4.39-13.618-7.801-19.764-13.927 7.084-40.69 11.882-71.444 11.882z" fill="#4671c6"/><path d="m76.274 75.449c-2.302 7.55-3.843 15.691-4.465 24.232 14.641 3.924 34.428 6.335 56.221 6.335s41.58-2.41 56.221-6.335c-.622-8.541-2.163-16.682-4.465-24.232-14.085 3.263-32.102 5.225-51.755 5.225s-37.672-1.962-51.757-5.225z" fill="#6bdddd"/><path d="m106.436 79.857c-.829 7.903-1.32 16.384-1.418 25.227 7.3.604 15.018.932 23.011.932s15.711-.328 23.011-.932c-.097-8.842-.588-17.324-1.418-25.227-6.878.531-14.116.817-21.593.817s-14.715-.286-21.593-.817z" fill="#e0ebfc"/><path d="m128.029 106.016c-38.271 0-70.381-7.427-79.235-17.448-1.578 6.327-2.432 12.94-2.432 19.756 0 12.721 36.563 23.034 81.667 23.034s81.666-10.313 81.667-23.034c0-6.816-.854-13.429-2.432-19.756-8.854 10.021-40.964 17.448-79.235 17.448z" fill="#6bdddd"/><path d="m183.342 125.266c.799-5.467 1.226-11.132 1.226-16.942 0-2.92-.111-5.802-.318-8.643-14.641 3.924-34.428 6.335-56.221 6.335s-41.58-2.41-56.221-6.335c-.207 2.84-.318 5.722-.318 8.643 0 5.81.427 11.475 1.226 16.942 14.549 3.78 33.971 6.092 55.312 6.092s40.765-2.312 55.314-6.092z" fill="#e0ebfc"/><path d="m150.197 130.491c.56-7.052.866-14.481.866-22.168 0-1.086-.011-2.164-.023-3.24-7.3.604-15.018.932-23.011.932s-15.711-.328-23.011-.932c-.012 1.076-.023 2.153-.023 3.24 0 7.687.306 15.116.866 22.168 7.052.56 14.481.866 22.168.866s15.116-.306 22.168-.866z" fill="#4671c6"/><path d="m128.029 131.358c-45.103 0-81.666-10.313-81.667-23.034 0 12.643 2.876 24.614 8.004 35.298 13.168 7.737 41.202 13.079 73.662 13.079s60.494-5.342 73.662-13.079c5.129-10.684 8.004-22.654 8.004-35.298.002 12.721-36.562 23.034-81.665 23.034z" fill="#4671c6"/><path d="m72.717 125.266c1.433 9.805 4.089 18.953 7.719 27.115 13.401 2.716 29.831 4.319 47.594 4.319s34.193-1.602 47.594-4.319c3.629-8.163 6.286-17.31 7.719-27.115-14.549 3.78-33.971 6.092-55.312 6.092s-40.765-2.312-55.314-6.092z" fill="#6bdddd"/><path d="m105.861 130.491c.74 9.316 1.932 17.953 3.49 25.599 6 .396 12.25.609 18.678.609s12.678-.213 18.678-.609c1.558-7.646 2.751-16.284 3.49-25.599-7.052.56-14.481.866-22.168.866s-15.116-.306-22.168-.866z" fill="#e0ebfc"/><path d="m128.029 156.7c-32.427 0-60.436-5.331-73.621-13.055 7.099 14.768 18.498 27.072 32.592 35.28 12.057 1.98 26.071 3.117 41.029 3.117s28.972-1.137 41.029-3.117c14.093-8.208 25.493-20.512 32.592-35.28-13.185 7.723-41.194 13.055-73.621 13.055z" fill="#6bdddd"/><path d="m128.029 156.7c-17.763 0-34.193-1.602-47.594-4.319 5.339 12.008 12.79 21.858 21.603 28.462 8.166.774 16.9 1.199 25.991 1.199s17.825-.425 25.991-1.199c8.813-6.604 16.264-16.454 21.603-28.462-13.401 2.716-29.831 4.319-47.594 4.319z" fill="#e0ebfc"/><path d="m109.352 156.091c2.228 10.932 5.196 19.84 8.65 25.771 3.289.114 6.63.18 10.028.18s6.739-.066 10.028-.18c3.454-5.931 6.422-14.839 8.65-25.771-6 .396-12.25.609-18.678.609-6.429 0-12.679-.213-18.678-.609z" fill="#4671c6"/><path d="m102.035 180.839c7.784 5.834 16.619 9.151 25.995 9.151s18.21-3.316 25.995-9.151c-8.167.775-16.9 1.202-25.995 1.202s-17.829-.426-25.995-1.202z" fill="#4671c6"/><path d="m128.029 182.042c-3.406 0-6.741-.079-10.035-.194 3.034 5.214 6.438 8.143 10.035 8.143 3.598 0 7.002-2.928 10.035-8.143-3.294.115-6.629.194-10.035.194z" fill="#6bdddd"/><path d="m154.024 180.839c-7.784 5.834-16.619 9.151-25.994 9.151 14.965 0 28.978-4.044 41.039-11.071-4.733.778-9.773 1.42-15.045 1.92z" fill="#e0ebfc"/><path d="m86.991 178.919c12.061 7.027 26.074 11.071 41.039 11.071-9.376 0-18.21-3.316-25.994-9.151-5.273-.5-10.314-1.142-15.045-1.92z" fill="#e0ebfc"/><path d="m128.029 191.99c-46.134 0-83.667-37.533-83.667-83.667s37.533-83.667 83.667-83.667 83.667 37.533 83.667 83.667-37.533 83.667-83.667 83.667zm0-163.334c-43.928 0-79.667 35.738-79.667 79.667s35.738 79.667 79.667 79.667 79.667-35.738 79.667-79.667-35.738-79.667-79.667-79.667z" fill="#3762cc"/><path d="m222.504 15.616c-3.011 6.58-8.005 12.062-14.221 15.684-1.115.65-1.115 2.227 0 2.876 6.216 3.622 11.211 9.104 14.221 15.684.585 1.279 2.407 1.279 2.992 0 3.011-6.58 8.005-12.062 14.221-15.684 1.115-.65 1.115-2.227 0-2.876-6.217-3.622-11.211-9.104-14.221-15.684-.585-1.279-2.407-1.279-2.992 0z" fill="#ffea92"/><path d="m222.504 159.616c-3.011 6.58-8.005 12.062-14.221 15.684-1.115.65-1.115 2.227 0 2.876 6.216 3.622 11.211 9.104 14.221 15.684.585 1.279 2.407 1.279 2.992 0 3.011-6.58 8.005-12.062 14.221-15.684 1.115-.65 1.115-2.227 0-2.876-6.217-3.622-11.211-9.104-14.221-15.684-.585-1.279-2.407-1.279-2.992 0z" fill="#ffea92"/><path d="m30.504 15.616c-3.011 6.58-8.005 12.062-14.221 15.684-1.115.65-1.115 2.227 0 2.876 6.216 3.622 11.211 9.104 14.221 15.684.585 1.279 2.407 1.279 2.992 0 3.011-6.58 8.005-12.062 14.221-15.684 1.115-.65 1.115-2.227 0-2.876-6.217-3.622-11.211-9.104-14.221-15.684-.585-1.279-2.407-1.279-2.992 0z" fill="#ffea92"/><path d="m30.504 160.616c-3.011 6.58-8.005 12.062-14.221 15.684-1.115.65-1.115 2.227 0 2.876 6.216 3.622 11.211 9.104 14.221 15.684.585 1.279 2.407 1.279 2.992 0 3.011-6.58 8.005-12.062 14.221-15.684 1.115-.65 1.115-2.227 0-2.876-6.217-3.622-11.211-9.104-14.221-15.684-.585-1.279-2.407-1.279-2.992 0z" fill="#ffea92"/><path d="m128.029 26.657c1.691 0 3.366.068 5.032.169v-12.169h-10.065v12.169c1.667-.101 3.342-.169 5.033-.169z" fill="#a4c9ff"/><path d="m133.062 28.826c-.041 0-.081-.001-.122-.004-3.721-.227-6.101-.227-9.821 0-.548.033-1.09-.162-1.492-.539-.401-.378-.629-.905-.629-1.457v-12.17c0-1.104.896-2 2-2h10.064c1.104 0 2 .896 2 2v12.17c0 .552-.228 1.079-.629 1.457-.373.35-.864.543-1.371.543zm-5.033-4.17c.968 0 1.959.021 3.032.064v-8.064h-6.064v8.064c1.073-.043 2.065-.064 3.032-.064z" fill="#3762cc"/><path d="m69.684 184.022c13.319 6.211 29.152.448 35.363-12.871l22.791-48.875c.407-.873.029-1.912-.844-2.319l-45.071-21.017c-.873-.407-1.912-.029-2.319.844l-22.791 48.875c-6.211 13.319-.448 29.152 12.871 35.363z" fill="#e0ebfc"/><path d="m25.939 221.062 43.49 20.279.174-.372c1.805-3.87.13-8.471-3.74-10.275l-29.474-13.744c-3.87-1.805-8.471-.13-10.275 3.74z" fill="#e0ebfc"/><path d="m62.674 150.542 54.494-19.834-17.656 37.862c-4.778 10.246-17.001 14.695-27.247 9.917s-14.695-17.001-9.917-27.247z" fill="#f9a7a7"/><path d="m47.962 222.346 18.658-40.013c.972.619 1.991 1.188 3.063 1.688 1.073.5 2.163.915 3.262 1.262l-18.658 40.013z" fill="#e0ebfc"/><path d="m80.886 188.513c-4.043 0-8.147-.86-12.047-2.679-6.926-3.229-12.18-8.963-14.793-16.144-2.614-7.182-2.275-14.95.955-21.877l22.791-48.875c.422-.906 1.173-1.594 2.113-1.937.938-.343 1.956-.299 2.864.125l45.071 21.018c.907.423 1.594 1.173 1.936 2.113.342.939.298 1.957-.125 2.863l-22.791 48.875c-4.849 10.399-15.193 16.518-25.974 16.518zm-10.357-6.304c12.299 5.734 26.97.396 32.705-11.904l22.683-48.643-44.608-20.802-22.684 48.645c-5.734 12.298-.394 26.969 11.904 32.704z" fill="#3762cc"/><path d="m69.427 243.341c-.283 0-.57-.06-.844-.188l-43.489-20.279c-1.001-.467-1.434-1.656-.968-2.657l.173-.372c1.099-2.356 3.049-4.144 5.492-5.033 2.443-.887 5.086-.772 7.441.325l29.474 13.744c2.356 1.099 4.144 3.049 5.033 5.491.889 2.443.773 5.086-.325 7.442l-.174.373c-.339.727-1.06 1.154-1.813 1.154zm-40.629-23.153 39.462 18.401c.149-.946.058-1.922-.279-2.849-.524-1.438-1.577-2.587-2.964-3.234l-29.474-13.744c-1.387-.646-2.944-.713-4.383-.191-.926.337-1.732.893-2.362 1.617z" fill="#3762cc"/><path d="m54.287 227.296c-.283 0-.57-.06-.844-.188l-6.326-2.949c-.48-.224-.853-.63-1.034-1.128-.182-.499-.157-1.049.067-1.53l18.658-40.013c.243-.521.699-.913 1.252-1.074.55-.161 1.146-.077 1.633.232.944.6 1.898 1.125 2.835 1.563.942.439 1.958.832 3.019 1.167.549.173.997.574 1.229 1.102s.226 1.129-.018 1.651l-18.658 40.013c-.339.727-1.06 1.154-1.813 1.154zm-3.667-5.917 2.701 1.259 16.886-36.211c-.468-.188-.925-.386-1.368-.593-.442-.206-.887-.429-1.332-.667z" fill="#3762cc"/><path d="m186.316 184.024c-13.319 6.211-29.152.448-35.363-12.871l-22.791-48.875c-.407-.873-.029-1.912.844-2.319l45.071-21.017c.873-.407 1.912-.029 2.319.844l22.791 48.875c6.211 13.32.448 29.152-12.871 35.363z" fill="#e0ebfc"/><path d="m230.061 221.064-43.49 20.279-.174-.372c-1.805-3.87-.13-8.471 3.74-10.275l29.474-13.744c3.87-1.805 8.471-.13 10.275 3.74z" fill="#e0ebfc"/><path d="m193.326 150.544-54.494-19.834 17.655 37.862c4.778 10.246 17.001 14.695 27.247 9.917s14.695-17.001 9.917-27.247z" fill="#f9a7a7"/><path d="m208.038 222.349-18.658-40.013c-.972.619-1.991 1.188-3.063 1.688-1.073.5-2.163.915-3.262 1.262l18.658 40.013z" fill="#e0ebfc"/><path d="m175.114 188.516c-10.782.001-21.125-6.118-25.973-16.517l-22.791-48.875c-.873-1.872-.06-4.105 1.811-4.978l45.071-21.017c1.872-.876 4.104-.06 4.977 1.811l22.791 48.875c3.23 6.927 3.569 14.695.955 21.877s-7.868 12.915-14.793 16.145c-3.9 1.818-8.005 2.679-12.048 2.679zm-45.031-66.852 22.683 48.644c5.735 12.299 20.406 17.64 32.705 11.904 12.299-5.735 17.639-20.407 11.904-32.705l-22.683-48.645zm56.233 62.36h.01z" fill="#3762cc"/><path d="m186.571 243.344c-.231 0-.463-.04-.684-.121-.499-.181-.905-.554-1.129-1.034l-.174-.373c-1.098-2.355-1.214-4.998-.325-7.441.889-2.442 2.677-4.393 5.033-5.491l29.474-13.744c2.356-1.1 4.998-1.214 7.441-.325 2.443.89 4.393 2.677 5.492 5.032l.174.373c.466 1.001.033 2.19-.968 2.657l-43.489 20.28c-.267.124-.556.187-.845.187zm36.305-25.12c-.826 0-1.648.181-2.419.54l-29.474 13.744c-1.388.647-2.44 1.796-2.964 3.234-.337.927-.429 1.902-.279 2.85l39.462-18.402c-.629-.724-1.436-1.279-2.362-1.617-.64-.233-1.303-.349-1.964-.349z" fill="#3762cc"/><path d="m201.713 227.298c-.753 0-1.475-.427-1.814-1.154l-18.658-40.013c-.244-.522-.25-1.124-.018-1.651s.68-.929 1.229-1.102c1.061-.335 2.077-.728 3.018-1.167.939-.438 1.893-.963 2.837-1.563.485-.31 1.081-.395 1.633-.232.553.161 1.009.553 1.252 1.074l18.658 40.013c.224.481.249 1.031.067 1.53-.182.498-.554.904-1.034 1.128l-6.326 2.949c-.273.128-.561.188-.844.188zm-15.92-40.869 16.886 36.211 2.701-1.259-16.886-36.212c-.445.238-.89.461-1.333.667-.443.207-.9.405-1.368.593z" fill="#3762cc"/><g fill="#ffea92"><path d="m138.327 114.696.065.065c.902.902 2.364.901 3.266-.001l5.059-5.062c.902-.902.901-2.364-.001-3.266l-.065-.065c-.902-.902-2.364-.901-3.266.001l-5.059 5.062c-.902.903-.901 2.365.001 3.266z"/><path d="m127.945 110.113h-.085c-1.277 0-2.313-1.035-2.313-2.312l-.002-7.182c0-1.277 1.035-2.313 2.312-2.313h.085c1.277 0 2.313 1.035 2.313 2.312l.002 7.182c0 1.277-1.035 2.313-2.312 2.313z"/><path d="m117.677 114.702-.065.065c-.902.902-2.364.902-3.266.001l-5.062-5.059c-.902-.902-.902-2.364-.001-3.266l.065-.065c.902-.902 2.364-.902 3.266-.001l5.062 5.059c.902.902.903 2.364.001 3.266z"/><path d="m117.673 125.454-.065-.065c-.902-.902-2.364-.901-3.266.001l-5.059 5.062c-.902.902-.901 2.364.001 3.266l.065.065c.902.902 2.364.901 3.266-.001l5.059-5.062c.902-.902.901-2.364-.001-3.266z"/><path d="m128.055 130.038h.085c1.277 0 2.313 1.035 2.313 2.312l.002 7.182c0 1.277-1.035 2.313-2.312 2.313h-.085c-1.277 0-2.313-1.035-2.313-2.312l-.002-7.182c0-1.277 1.035-2.313 2.312-2.313z"/><path d="m138.323 125.448.065-.065c.902-.902 2.364-.902 3.266-.001l5.062 5.059c.902.902.902 2.364.001 3.266l-.065.065c-.902.902-2.364.902-3.266.001l-5.062-5.059c-.902-.901-.903-2.364-.001-3.266z"/></g></svg>