<svg id="Layer_1" enable-background="new 0 0 256 256" height="512" viewBox="0 0 256 256" width="512" xmlns="http://www.w3.org/2000/svg"><path d="m145.188 175.639-131.487 68.199c-3.631 1.883-6.926-1.411-5.042-5.042l68.199-131.487z" fill="#f9a7a7"/><path d="m22.227 212.636 61.64-5.191-40.985 21.258-30.312 2.553z" fill="#e0ebfc"/><path d="m143.814 176.351-23.651 12.267-89.383 7.528 9.657-18.619 88.047-7.415c6.9 4.574 12.425 6.916 15.33 6.239z" fill="#e0ebfc"/><path d="m103.451 149.046c1.418 1.418 2.835 2.792 4.245 4.128l-57.123 4.811 9.658-18.62 31.804-2.678c3.398 4.007 7.235 8.178 11.416 12.359z" fill="#e0ebfc"/><path d="m129.232 124.043 3.715 3.715c.617.617 1.619.617 2.236 0l9.667-9.667c.617-.617.617-1.619 0-2.236l-3.715-3.715c-.617-.617-1.619-.617-2.236 0l-9.667 9.667c-.617.618-.617 1.619 0 2.236z" fill="#f9cfcf"/><path d="m137.031 40.478 3.715 3.715c.617.617 1.619.617 2.236 0l9.667-9.667c.617-.617.617-1.619 0-2.236l-3.715-3.715c-.617-.617-1.619-.617-2.236 0l-9.667 9.667c-.618.617-.618 1.618 0 2.236z" fill="#f9cfcf"/><path d="m216.322 110.814 5.323 5.323c.658.658 1.725.658 2.383 0l9.52-9.52c.658-.658.658-1.725 0-2.382l-5.323-5.323c-.658-.658-1.725-.658-2.382 0l-9.52 9.52c-.659.658-.659 1.724-.001 2.382z" fill="#ffea92"/><path d="m140.69 89.337 5.169 5.169c.654.654 1.713.654 2.367 0l9.536-9.536c.654-.654.654-1.713 0-2.367l-5.169-5.169c-.654-.654-1.713-.654-2.367 0l-9.536 9.536c-.654.653-.654 1.713 0 2.367z" fill="#a4c9ff"/><path d="m182.224 104.9c-.768 0-1.535-.293-2.121-.879-1.172-1.171-1.172-3.071 0-4.242 3.056-3.057 5.809-3.563 8.021-3.971 1.884-.347 3.128-.576 4.864-2.312 1.735-1.736 1.965-2.98 2.312-4.864.407-2.212.914-4.965 3.971-8.021 3.056-3.056 5.808-3.563 8.02-3.97 1.884-.347 3.128-.575 4.864-2.312 1.735-1.735 1.964-2.979 2.311-4.863.407-2.212.914-4.964 3.97-8.02 1.172-1.172 3.07-1.172 4.242 0 1.172 1.171 1.172 3.071 0 4.242-1.735 1.735-1.964 2.979-2.311 4.863-.407 2.212-.914 4.964-3.97 8.02-3.056 3.057-5.809 3.563-8.021 3.971-1.884.347-3.128.575-4.863 2.311s-1.965 2.98-2.312 4.865c-.407 2.212-.914 4.964-3.971 8.02-3.056 3.057-5.808 3.563-8.02 3.971-1.885.347-3.129.576-4.865 2.312-.586.586-1.354.879-2.121.879z" fill="#f9cfcf"/><path d="m154.184 63.847c-.768 0-1.535-.293-2.121-.879-1.172-1.171-1.172-3.071 0-4.242 2.983-2.983 5.556-3.627 7.623-4.144 1.758-.439 3.027-.757 4.836-2.565 1.808-1.809 2.125-3.078 2.564-4.836.517-2.067 1.159-4.64 4.144-7.623 2.983-2.983 5.556-3.626 7.623-4.143 1.757-.439 3.027-.757 4.835-2.564 1.808-1.808 2.125-3.077 2.563-4.835.517-2.066 1.159-4.639 4.143-7.622 1.172-1.172 3.07-1.172 4.242 0 1.172 1.171 1.172 3.071 0 4.242-1.808 1.808-2.125 3.077-2.563 4.835-.517 2.066-1.159 4.639-4.143 7.622s-5.556 3.626-7.623 4.143c-1.757.439-3.027.757-4.835 2.564-1.808 1.809-2.125 3.078-2.564 4.836-.517 2.067-1.159 4.64-4.144 7.623-2.983 2.983-5.556 3.627-7.623 4.144-1.758.439-3.027.757-4.836 2.565-.586.586-1.354.879-2.121.879z" fill="#6bdddd"/><path d="m215.344 40.478 3.715 3.715c.617.617 1.619.617 2.236 0l9.667-9.667c.617-.617.617-1.619 0-2.236l-3.715-3.715c-.617-.617-1.619-.617-2.236 0l-9.667 9.667c-.617.617-.617 1.618 0 2.236z" fill="#a4c9ff"/><path d="m50.64 38.462c-2.346 5.128-6.239 9.4-11.083 12.223-.869.506-.869 1.735 0 2.242 4.845 2.823 8.737 7.095 11.083 12.223.456.996 1.876.996 2.332 0 2.346-5.128 6.239-9.4 11.083-12.223.869-.506.869-1.735 0-2.242-4.845-2.823-8.737-7.095-11.083-12.223-.456-.997-1.876-.997-2.332 0z" fill="#ffea92"/><g fill="#f9a7a7"><path d="m51.823 33.093c-.133 0-.267-.009-.401-.027-2.593-.349-2.613-2.881-2.621-3.963-.005-.647-.008-1.573-.01-2.683-.003-2.207-.001-5.147.004-8.089.009-5.877.028-11.754.028-11.754.005-1.653 1.347-2.99 3-2.99h.009c1.657.005 2.996 1.353 2.991 3.01-.027 8.601-.052 21.636-.014 23.197.035.353.008.717-.09 1.078-.358 1.323-1.558 2.221-2.896 2.221z"/><path d="m51.823 137.786c-.052 0-.105-.001-.158-.004-2.21-.115-2.708-1.761-2.824-3.318h-.001c0-.002 0-.005.001-.007-.033-.442-.035-.877-.036-1.268-.004-1.038-.008-2.539-.01-4.391-.002-1.657 1.339-3.002 2.996-3.004h.004c1.655 0 2.998 1.341 3 2.996.005 4.18.014 5.415.02 5.755.014.181.012.364-.008.551-.164 1.534-1.459 2.69-2.984 2.69z"/><path d="m51.79 122.111c-1.657 0-3-1.343-3-3l.002-9.689c0-1.656 1.344-2.999 3-2.999h.001c1.657.001 2.999 1.345 2.999 3.001l-.002 9.688c0 1.657-1.344 2.999-3 2.999zm.008-19.378c-.001 0-.001 0-.002 0-1.657-.001-2.999-1.346-2.998-3.002l.008-9.688c.001-1.656 1.344-2.998 3-2.998h.002c1.657.001 2.999 1.346 2.998 3.002l-.008 9.688c-.001 1.657-1.344 2.998-3 2.998z"/><path d="m51.816 83.364c-.001 0-.002 0-.003 0-1.657-.002-2.999-1.347-2.997-3.004l.007-5.998c.002-1.656 1.345-2.997 3-2.997h.003c1.657.002 2.999 1.347 2.997 3.003l-.007 6c-.002 1.655-1.345 2.996-3 2.996z"/><path d="m73.226 55.229c-.26 0-.523-.034-.786-.105-1.454-.394-2.393-1.805-2.192-3.297.349-2.593 2.881-2.612 3.963-2.621.648-.005 1.573-.008 2.683-.01 2.208-.001 5.149 0 8.088.004 5.877.01 11.753.028 11.753.028 1.657.005 2.996 1.353 2.991 3.01-.005 1.653-1.347 2.99-3 2.99-.003 0-.006 0-.009 0-8.601-.028-21.637-.055-23.198-.014-.097.011-.195.015-.293.015z"/><path d="m8.897 55.264c-.263 0-.53-.035-.795-.107-1.45-.398-2.384-1.81-2.182-3.3.353-2.588 2.882-2.607 3.962-2.616.648-.005 1.573-.008 2.683-.01 2.205-.003 5.147-.001 8.089.004 5.877.01 11.753.028 11.753.028 1.657.005 2.996 1.353 2.99 3.01-.005 1.653-1.348 2.99-3 2.99-.003 0-.006 0-.01 0-8.597-.027-21.63-.053-23.195-.014-.097.01-.196.015-.295.015z"/><path d="m78.034 80.453c-.771 0-1.543-.296-2.129-.887-4.772-4.809-12.506-12.579-13.545-13.565-.317-.258-.587-.585-.783-.973-.667-1.317-.278-2.927.919-3.791 2.087-1.509 3.249-.352 6.052 2.442 1.297 1.292 3.021 3.02 4.743 4.748 3.44 3.453 6.873 6.912 6.873 6.912 1.167 1.176 1.16 3.075-.016 4.243-.585.581-1.35.871-2.114.871z"/><path d="m41.344 43.812c-.771 0-1.543-.296-2.129-.887-4.772-4.809-12.506-12.58-13.545-13.566-.317-.258-.587-.585-.783-.973-.667-1.317-.278-2.927.919-3.791 2.088-1.509 3.249-.352 6.052 2.442 1.297 1.293 3.021 3.02 4.743 4.749 3.44 3.453 6.873 6.912 6.873 6.912 1.167 1.176 1.16 3.076-.016 4.243-.585.58-1.35.871-2.114.871z"/><path d="m27.585 80.453c-.771 0-1.543-.296-2.129-.887-1.167-1.176-1.16-3.075.016-4.243 4.81-4.772 12.583-12.509 13.567-13.545.256-.315.58-.583.964-.778 1.316-.673 2.929-.286 3.795.912 1.512 2.089.355 3.25-2.44 6.056-1.292 1.297-3.02 3.021-4.748 4.742-3.454 3.44-6.912 6.873-6.912 6.873-.585.58-1.349.87-2.113.87z"/><path d="m64.227 43.764c-.771 0-1.543-.296-2.129-.887-1.167-1.176-1.16-3.075.016-4.243 4.81-4.772 12.583-12.509 13.567-13.545.256-.315.58-.583.964-.778 1.316-.673 2.929-.286 3.795.912 1.512 2.089.355 3.25-2.44 6.056-1.292 1.297-3.02 3.021-4.748 4.742-3.454 3.44-6.912 6.873-6.912 6.873-.585.58-1.349.87-2.113.87z"/></g><path d="m39.389 14.835c-1.027 2.245-2.732 4.116-4.853 5.353-.381.222-.381.76 0 .982 2.121 1.236 3.826 3.107 4.853 5.352.2.436.821.436 1.021 0 1.027-2.246 2.732-4.116 4.853-5.352.381-.222.381-.76 0-.982-2.122-1.236-3.826-3.107-4.853-5.353-.199-.436-.821-.436-1.021 0z" fill="#ffea92"/><path d="m63.168 14.835c-1.027 2.245-2.732 4.116-4.853 5.353-.381.222-.381.76 0 .982 2.121 1.236 3.826 3.107 4.853 5.352.2.436.821.436 1.021 0 1.027-2.246 2.732-4.116 4.853-5.352.381-.222.381-.76 0-.982-2.122-1.236-3.826-3.107-4.853-5.353-.199-.436-.821-.436-1.021 0z" fill="#ffea92"/><path d="m39.389 80.275c-1.027 2.245-2.732 4.116-4.853 5.353-.381.222-.381.76 0 .982 2.121 1.236 3.826 3.107 4.853 5.352.2.436.821.436 1.021 0 1.027-2.246 2.732-4.116 4.853-5.352.381-.222.381-.76 0-.982-2.122-1.236-3.826-3.107-4.853-5.353-.199-.437-.821-.437-1.021 0z" fill="#ffea92"/><path d="m63.168 80.275c-1.027 2.245-2.732 4.116-4.853 5.353-.381.222-.381.76 0 .982 2.121 1.236 3.826 3.107 4.853 5.352.2.436.821.436 1.021 0 1.027-2.246 2.732-4.116 4.853-5.352.381-.222.381-.76 0-.982-2.122-1.236-3.826-3.107-4.853-5.353-.199-.437-.821-.437-1.021 0z" fill="#ffea92"/><path d="m84.463 58.308c-1.027 2.245-2.732 4.116-4.853 5.353-.381.222-.381.76 0 .982 2.121 1.236 3.826 3.107 4.853 5.352.2.436.821.436 1.021 0 1.027-2.246 2.732-4.116 4.853-5.352.381-.222.381-.76 0-.982-2.122-1.236-3.826-3.107-4.853-5.353-.199-.436-.821-.436-1.021 0z" fill="#ffea92"/><path d="m84.463 34.53c-1.027 2.245-2.732 4.116-4.853 5.353-.381.222-.381.76 0 .982 2.121 1.236 3.826 3.107 4.853 5.352.2.436.821.436 1.021 0 1.027-2.246 2.732-4.116 4.853-5.352.381-.222.381-.76 0-.982-2.122-1.236-3.826-3.107-4.853-5.353-.199-.437-.821-.437-1.021 0z" fill="#ffea92"/><path d="m20.135 58.308c-1.027 2.245-2.732 4.116-4.853 5.353-.381.222-.381.76 0 .982 2.121 1.236 3.826 3.107 4.853 5.352.2.436.821.436 1.021 0 1.027-2.246 2.732-4.116 4.853-5.352.381-.222.381-.76 0-.982-2.122-1.236-3.826-3.107-4.853-5.353-.2-.436-.822-.436-1.021 0z" fill="#ffea92"/><path d="m20.135 34.53c-1.027 2.245-2.732 4.116-4.853 5.353-.381.222-.381.76 0 .982 2.121 1.236 3.826 3.107 4.853 5.352.2.436.821.436 1.021 0 1.027-2.246 2.732-4.116 4.853-5.352.381-.222.381-.76 0-.982-2.122-1.236-3.826-3.107-4.853-5.353-.2-.437-.822-.437-1.021 0z" fill="#ffea92"/><path d="m202.031 171.565c-2.112 4.615-5.615 8.46-9.975 11.001-.782.456-.782 1.562 0 2.018 4.36 2.54 7.863 6.385 9.975 11.001.41.897 1.688.897 2.098 0 2.112-4.615 5.615-8.46 9.975-11.001.782-.456.782-1.562 0-2.018-4.36-2.541-7.863-6.386-9.975-11.001-.41-.896-1.688-.896-2.098 0z" fill="#ffea92"/><path d="m203.098 165.362c-.155 0-.313-.011-.47-.032-3.022-.407-3.045-3.348-3.054-4.454-.005-.648-.008-1.575-.01-2.686-.003-2.207-.001-5.149.004-8.091.01-5.878.028-11.754.028-11.754.006-1.93 1.572-3.489 3.5-3.489h.011c1.934.006 3.495 1.578 3.489 3.511-.027 8.555-.053 21.531-.015 23.165.038.406.006.826-.107 1.243-.417 1.542-1.817 2.587-3.376 2.587z" fill="#f9a7a7"/><path d="m203.098 250.563c-.09 0-.18-.003-.271-.01-3.229-.249-3.243-3.296-3.251-5.117-.005-1.05-.009-2.553-.01-4.365-.002-1.934 1.564-3.501 3.497-3.503h.003c1.932 0 3.498 1.565 3.5 3.497.003 4.225.015 5.39.021 5.709.021.27.013.545-.031.824-.268 1.715-1.748 2.965-3.458 2.965z" fill="#f9a7a7"/><path d="m203.064 234.921c-.001 0-.001 0-.002 0-1.934-.001-3.499-1.569-3.498-3.502l.01-9.649c.002-1.932 1.569-3.496 3.5-3.496h.004c1.934.002 3.498 1.571 3.496 3.504l-.01 9.646c-.001 1.931-1.568 3.497-3.5 3.497z" fill="#f9a7a7"/><path d="m203.087 215.635c-.002 0-.004 0-.006 0-1.933-.003-3.497-1.572-3.494-3.506l.01-6c.003-1.931 1.569-3.494 3.5-3.494h.006c1.933.003 3.497 1.572 3.494 3.506l-.01 6c-.003 1.93-1.569 3.494-3.5 3.494z" fill="#f9a7a7"/><path d="m224.499 187.499c-.303 0-.611-.04-.918-.123-1.695-.46-2.79-2.105-2.555-3.847.407-3.022 3.348-3.045 4.454-3.054.648-.005 1.575-.008 2.686-.01 2.209-.003 5.149 0 8.091.004 5.878.01 11.754.028 11.754.028 1.934.006 3.495 1.578 3.489 3.511-.006 1.93-1.572 3.489-3.5 3.489-.004 0-.007 0-.011 0-8.555-.027-21.533-.053-23.165-.015-.107.012-.216.017-.325.017z" fill="#f9a7a7"/><path d="m160.171 187.532c-.302 0-.609-.039-.915-.122-1.696-.458-2.792-2.104-2.559-3.846.406-3.024 3.348-3.047 4.455-3.056.648-.005 1.574-.008 2.686-.01 2.209-.002 5.149.001 8.09.004 5.878.01 11.754.028 11.754.028 1.934.006 3.495 1.578 3.489 3.511-.006 1.93-1.572 3.489-3.5 3.489-.004 0-.007 0-.011 0-8.555-.028-21.532-.053-23.164-.015-.107.012-.216.017-.325.017z" fill="#f9a7a7"/><path d="m229.308 212.723c-.9 0-1.8-.345-2.484-1.034-4.743-4.779-12.437-12.51-13.52-13.543-.362-.297-.67-.672-.896-1.116-.782-1.536-.329-3.416 1.067-4.426 2.435-1.762 3.948-.251 6.7 2.491 1.298 1.293 3.021 3.021 4.744 4.75 3.44 3.453 6.873 6.912 6.873 6.912 1.361 1.372 1.354 3.589-.019 4.95-.682.678-1.574 1.016-2.465 1.016z" fill="#f9a7a7"/><path d="m192.618 176.08c-.9 0-1.8-.345-2.484-1.034-4.741-4.778-12.434-12.507-13.52-13.541-.366-.301-.677-.68-.903-1.13-.775-1.537-.318-3.412 1.078-4.418 2.43-1.75 3.944-.245 6.696 2.495 1.297 1.293 3.021 3.021 4.744 4.75 3.44 3.453 6.873 6.912 6.873 6.912 1.361 1.372 1.354 3.589-.019 4.95-.682.678-1.573 1.016-2.465 1.016z" fill="#f9a7a7"/><path d="m178.858 212.723c-.9 0-1.8-.345-2.484-1.034-1.361-1.372-1.354-3.589.019-4.95 4.782-4.745 12.515-12.441 13.545-13.521.296-.36.669-.666 1.109-.892 1.537-.787 3.418-.334 4.43 1.062 1.764 2.434.253 3.95-2.49 6.703-1.293 1.298-3.021 3.021-4.749 4.744-3.454 3.44-6.913 6.873-6.913 6.873-.683.677-1.575 1.015-2.467 1.015z" fill="#f9a7a7"/><path d="m215.501 176.033c-.9 0-1.8-.345-2.484-1.034-1.361-1.372-1.354-3.589.019-4.95 4.778-4.742 12.508-12.435 13.542-13.52.3-.366.679-.677 1.129-.903 1.535-.776 3.411-.318 4.418 1.078 1.753 2.433.244 3.946-2.495 6.695-1.293 1.298-3.021 3.022-4.75 4.745-3.453 3.44-6.912 6.873-6.912 6.873-.684.678-1.575 1.016-2.467 1.016z" fill="#f9a7a7"/><path d="m190.663 146.605c-1.027 2.245-2.732 4.116-4.853 5.353-.381.222-.381.76 0 .982 2.122 1.236 3.826 3.107 4.853 5.352.2.436.821.436 1.021 0 1.027-2.246 2.732-4.116 4.853-5.352.381-.222.381-.76 0-.982-2.122-1.236-3.826-3.107-4.853-5.353-.199-.437-.821-.437-1.021 0z" fill="#ffea92"/><path d="m214.442 146.605c-1.027 2.245-2.732 4.116-4.853 5.353-.381.222-.381.76 0 .982 2.122 1.236 3.826 3.107 4.853 5.352.2.436.821.436 1.021 0 1.027-2.246 2.732-4.116 4.853-5.352.381-.222.381-.76 0-.982-2.122-1.236-3.826-3.107-4.853-5.353-.2-.437-.821-.437-1.021 0z" fill="#ffea92"/><path d="m190.663 212.044c-1.027 2.245-2.732 4.116-4.853 5.353-.381.222-.381.76 0 .982 2.122 1.236 3.826 3.107 4.853 5.352.2.436.821.436 1.021 0 1.027-2.246 2.732-4.116 4.853-5.352.381-.222.381-.76 0-.982-2.122-1.236-3.826-3.107-4.853-5.353-.199-.436-.821-.436-1.021 0z" fill="#ffea92"/><path d="m214.442 212.044c-1.027 2.245-2.732 4.116-4.853 5.353-.381.222-.381.76 0 .982 2.122 1.236 3.826 3.107 4.853 5.352.2.436.821.436 1.021 0 1.027-2.246 2.732-4.116 4.853-5.352.381-.222.381-.76 0-.982-2.122-1.236-3.826-3.107-4.853-5.353-.2-.436-.821-.436-1.021 0z" fill="#ffea92"/><path d="m235.737 190.078c-1.027 2.245-2.732 4.116-4.853 5.353-.381.222-.381.76 0 .982 2.122 1.236 3.826 3.107 4.853 5.352.2.436.821.436 1.021 0 1.027-2.246 2.732-4.116 4.853-5.352.381-.222.381-.76 0-.982-2.122-1.236-3.826-3.107-4.853-5.353-.2-.437-.821-.437-1.021 0z" fill="#ffea92"/><path d="m235.737 166.299c-1.027 2.245-2.732 4.116-4.853 5.353-.381.222-.381.76 0 .982 2.122 1.236 3.826 3.107 4.853 5.352.2.436.821.436 1.021 0 1.027-2.246 2.732-4.116 4.853-5.352.381-.222.381-.76 0-.982-2.122-1.236-3.826-3.107-4.853-5.353-.2-.436-.821-.436-1.021 0z" fill="#ffea92"/><path d="m171.408 190.078c-1.027 2.245-2.732 4.116-4.853 5.353-.381.222-.381.76 0 .982 2.121 1.236 3.826 3.107 4.853 5.352.2.436.821.436 1.021 0 1.027-2.246 2.732-4.116 4.853-5.352.381-.222.381-.76 0-.982-2.122-1.236-3.826-3.107-4.853-5.353-.199-.437-.821-.437-1.021 0z" fill="#ffea92"/><path d="m171.408 166.299c-1.027 2.245-2.732 4.116-4.853 5.353-.381.222-.381.76 0 .982 2.121 1.236 3.826 3.107 4.853 5.352.2.436.821.436 1.021 0 1.027-2.246 2.732-4.116 4.853-5.352.381-.222.381-.76 0-.982-2.122-1.236-3.826-3.107-4.853-5.353-.199-.436-.821-.436-1.021 0z" fill="#ffea92"/><path d="m11.585 246.382c-1.461 0-2.842-.537-3.888-1.583-1.762-1.762-2.082-4.479-.814-6.924l68.199-131.487c.293-.566.839-.958 1.47-1.056.632-.096 1.269.112 1.72.563l68.331 68.33c.451.451.66 1.09.563 1.72s-.489 1.176-1.056 1.47l-131.488 68.198c-.994.516-2.034.769-3.037.769zm65.79-135.728-66.941 129.063c-.462.892-.428 1.734.092 2.254s1.362.555 2.254.092l129.063-66.941z" fill="#3762cc"/><ellipse cx="111.023" cy="141.474" fill="#f9cfcf" rx="10.708" ry="48.317" transform="matrix(.707 -.707 .707 .707 -67.519 119.942)"/><path d="m142.742 178.466c-9.9 0-30.085-17.387-40.705-28.006-12.306-12.307-33.701-37.458-26.593-44.565 7.109-7.111 32.26 14.287 44.565 26.594 9.226 9.225 17.114 18.713 22.214 26.715 5.821 9.137 7.254 14.976 4.38 17.85-.974.972-2.289 1.412-3.861 1.412zm-64.47-69.743c-2.09 2.09 5.403 17.718 26.593 38.909 21.189 21.188 36.823 28.688 38.909 26.593.519-.52.729-3.998-4.926-12.872-4.947-7.764-12.642-17.011-21.668-26.036-21.19-21.192-36.813-28.685-38.908-26.594z" fill="#3762cc"/><path d="m147.754 157.691c-3.348 0-6.422-1.338-9.067-2.488-3.981-1.731-6.563-2.726-9.349-1.357-1.489.731-3.285.114-4.015-1.372-.729-1.487-.116-3.285 1.372-4.015 5.417-2.657 10.39-.495 14.385 1.242 3.981 1.732 6.562 2.726 9.349 1.357 2.536-1.244 2.827-3.275 3.158-7.057.337-3.853.799-9.128 6.491-11.92 5.419-2.657 10.39-.495 14.385 1.243 3.98 1.731 6.561 2.725 9.347 1.358 2.534-1.243 2.825-3.274 3.156-7.057.337-3.852.798-9.128 6.49-11.92 1.487-.73 3.284-.115 4.015 1.372.729 1.487.115 3.285-1.372 4.015-2.534 1.243-2.825 3.274-3.156 7.057-.337 3.852-.798 9.128-6.49 11.92-5.417 2.659-10.39.496-14.384-1.243-3.981-1.731-6.563-2.723-9.348-1.358-2.535 1.243-2.826 3.274-3.157 7.057-.337 3.852-.799 9.128-6.492 11.92-1.831.899-3.61 1.246-5.318 1.246z" fill="#6bdddd"/><path d="m101.844 129.983c-.443 0-.894-.099-1.319-.308-1.487-.729-2.102-2.527-1.372-4.015 1.367-2.786.375-5.367-1.357-9.35-1.738-3.994-3.901-8.966-1.243-14.385 2.792-5.692 8.068-6.154 11.92-6.492 3.782-.331 5.813-.622 7.057-3.157 1.366-2.785.374-5.366-1.358-9.348-1.738-3.994-3.901-8.966-1.243-14.384 2.792-5.692 8.068-6.153 11.92-6.49 3.781-.331 5.813-.621 7.056-3.155.73-1.488 2.531-2.101 4.015-1.372 1.487.729 2.102 2.527 1.372 4.015-2.793 5.691-8.067 6.153-11.92 6.489-3.781.331-5.813.622-7.056 3.156-1.366 2.785-.374 5.366 1.358 9.348 1.738 3.994 3.901 8.966 1.243 14.384-2.792 5.692-8.068 6.154-11.92 6.492-3.782.331-5.813.622-7.057 3.157-1.367 2.786-.375 5.367 1.358 9.35 1.738 3.994 3.9 8.966 1.242 14.385-.521 1.063-1.587 1.68-2.696 1.68z" fill="#ffea92"/></svg>