<svg id="Layer_1" enable-background="new 0 0 256 256" height="512" viewBox="0 0 256 256" width="512" xmlns="http://www.w3.org/2000/svg"><path d="m115.949 63.836h-3.173c-.007 0-.014-.001-.02-.001l-.001.001h-20.874c-5.514 0-9.985 4.47-9.985 9.985v5.009 1.422 2.634 9.463h.466 5.403 38.168v-9.463-2.634-1.422-5.01c.001-5.514-4.47-9.984-9.984-9.984z" fill="#e0ebfc"/><path d="m123.617 35.403c-.042 0-.082.005-.124.006v-1.833c0-10.715-8.765-19.402-19.578-19.402-10.813 0-19.578 8.686-19.578 19.402v1.833c-.042-.001-.082-.006-.124-.006-3.299 0-5.973 2.65-5.973 5.919s2.674 5.919 5.973 5.919c.217 0 .43-.013.641-.035 2.02 8.583 9.784 14.979 19.061 14.979 9.277 0 17.041-6.396 19.061-14.979.211.022.424.035.641.035 3.299 0 5.973-2.65 5.973-5.919s-2.675-5.919-5.973-5.919z" fill="#f9cfcf"/><g fill="#3762cc"><path d="m94.186 44.966c-1.303 0-2.364-1.06-2.364-2.363v-3.939c0-1.303 1.06-2.363 2.364-2.363 1.303 0 2.363 1.06 2.363 2.363v3.939c0 1.303-1.06 2.363-2.363 2.363z"/><path d="m113.552 44.966c-1.303 0-2.364-1.06-2.364-2.363v-3.939c0-1.303 1.06-2.363 2.364-2.363 1.303 0 2.363 1.06 2.363 2.363v3.939c0 1.303-1.061 2.363-2.363 2.363z"/><path d="m103.915 64.185c-9.544 0-17.795-6.089-20.589-14.993-3.98-.439-7.086-3.801-7.086-7.871 0-3.725 2.603-6.857 6.097-7.698v-.048c0-11.801 9.68-21.401 21.578-21.401s21.578 9.601 21.578 21.401v.048c3.494.84 6.097 3.973 6.097 7.698 0 4.069-3.105 7.432-7.086 7.871-2.794 8.904-11.045 14.993-20.589 14.993zm-19.059-18.979c.917 0 1.73.631 1.945 1.542 1.861 7.912 8.898 13.437 17.113 13.437s15.252-5.525 17.113-13.437c.231-.982 1.152-1.642 2.159-1.531.142.015.284.024.43.024 2.19 0 3.973-1.758 3.973-3.919 0-2.148-1.761-3.898-3.934-3.919-.075.004-.129.006-.163.006-.521 0-1.023-.204-1.397-.569-.385-.376-.603-.893-.603-1.431v-1.833c0-9.595-7.886-17.401-17.578-17.401s-17.577 7.805-17.577 17.401v1.833c0 .539-.218 1.055-.603 1.431-.386.376-.864.583-1.445.568-.031-.001-.118-.005-.15-.008-2.116.002-3.898 1.76-3.898 3.921s1.782 3.919 3.973 3.919c.146 0 .288-.009.43-.024.07-.007.141-.01.212-.01z"/></g><path d="m99.822 32.081h-20.288c-.714 0-1.293-.579-1.293-1.293v-5.177c0-9.754 7.907-17.662 17.662-17.662h9.416c2.679 0 4.85 2.172 4.85 4.85v8.935c0 5.715-4.633 10.347-10.347 10.347z" fill="#4671c6"/><path d="m128.296 32.081h-7.78c-5.715 0-10.347-4.633-10.347-10.347v-8.934c0-2.679 2.172-4.85 4.85-4.85 8.047 0 14.571 6.524 14.571 14.571v8.268c0 .713-.579 1.292-1.294 1.292z" fill="#4671c6"/><path d="m103.915 62.185c-3.199 0-6.218-.761-8.884-2.11v3.391c0 4.905 3.976 8.881 8.881 8.881s8.881-3.976 8.881-8.881v-3.388c-2.664 1.347-5.681 2.107-8.878 2.107z" fill="#f9cfcf"/><path d="m99.821 34.081h-20.287c-1.816 0-3.294-1.478-3.294-3.293v-5.177c0-10.841 8.82-19.662 19.662-19.662h9.416c3.777 0 6.851 3.073 6.851 6.851v8.934c0 6.808-5.539 12.347-12.348 12.347zm-19.581-4h19.581c4.603 0 8.348-3.745 8.348-8.347v-8.934c0-1.572-1.278-2.851-2.851-2.851h-9.416c-8.636 0-15.662 7.026-15.662 15.662z" fill="#3762cc"/><path d="m128.296 34.081h-7.78c-6.808 0-12.347-5.539-12.347-12.347v-8.934c0-3.777 3.072-6.851 6.85-6.851 9.138 0 16.571 7.434 16.571 16.571v8.268c0 1.816-1.478 3.293-3.294 3.293zm-13.277-24.132c-1.571 0-2.85 1.279-2.85 2.851v8.934c0 4.603 3.744 8.347 8.347 8.347h7.074v-7.561c0-6.932-5.64-12.571-12.571-12.571z" fill="#3762cc"/><path d="m125.934 94.348h-44.038c-1.104 0-2-.896-2-2v-18.528c0-6.608 5.376-11.985 11.984-11.985h1.15v-1.76c0-.695.36-1.34.952-1.704.591-.365 1.33-.396 1.95-.081 2.485 1.257 5.171 1.895 7.981 1.895s5.493-.637 7.977-1.892c.618-.315 1.357-.284 1.95.081.592.364.952 1.009.952 1.704v1.758h1.155c6.608 0 11.984 5.376 11.984 11.985v18.528c.003 1.104-.893 1.999-1.997 1.999zm-42.038-4h40.037v-16.528c0-4.403-3.582-7.985-7.984-7.985h-3.173c-.541 0-1.06-.22-1.437-.608s-.58-.914-.563-1.455l.012-.695c-4.401 1.472-9.356 1.471-13.758-.003l.017.682c.021.544-.179 1.073-.557 1.465-.377.392-.897.614-1.441.614h-3.169c-4.402 0-7.984 3.582-7.984 7.985z" fill="#3762cc"/><path d="m169.446 92.884c.955-.289 1.966-.448 3.015-.448h12.146c.231 0 .457.02.684.035v-1.73-1.867-2.01c3.879-3.319 6.34-8.247 6.34-13.752v-12.14c0-9.995-8.103-18.098-18.098-18.098s-18.098 8.103-18.098 18.098v10.623h-.88c-1.552 0-2.811 1.258-2.811 2.811 0 1.552 1.258 2.811 2.811 2.811h1.374c1.557 6.699 6.814 11.977 13.517 13.525z" fill="#f9cfcf"/><path d="m184.607 92.436h-12.146c-5.749 0-10.409 4.66-10.409 10.409v6.505 9.726h32.963v-9.726-6.505c.001-5.748-4.66-10.409-10.408-10.409z" fill="#f9a7a7"/><path d="m195.016 121.077h-32.964c-1.104 0-2-.896-2-2v-16.231c0-6.842 5.566-12.409 12.409-12.409h12.146c6.843 0 12.409 5.566 12.409 12.409v16.231c0 1.104-.896 2-2 2zm-30.964-4h28.964v-14.231c0-4.637-3.772-8.409-8.409-8.409h-12.146c-4.637 0-8.409 3.772-8.409 8.409z" fill="#3762cc"/><path d="m162.052 71.742c-.922 0-1.669-.747-1.669-1.669v-2.782c0-.922.747-1.669 1.669-1.669.922 0 1.669.747 1.669 1.669v2.782c0 .922-.747 1.669-1.669 1.669z" fill="#3762cc"/><circle cx="176.348" cy="72.121" fill="#f9cfcf" r="6.407"/><path d="m169.445 94.884c-.425 0-.844-.135-1.192-.394-.508-.377-.808-.973-.808-1.606v-.62c-6.156-1.965-11.065-6.878-13.04-13.05-2.584-.079-4.661-2.206-4.661-4.808 0-2.267 1.576-4.173 3.69-4.679v-8.754c0-11.082 9.016-20.098 20.098-20.098s20.099 9.016 20.099 20.098v12.14c0 5.563-2.3 10.848-6.341 14.644v4.715c0 .554-.229 1.083-.634 1.46s-.94.572-1.5.535l-.131-.009c-.139-.01-.277-.021-.419-.021h-12.146c-.822 0-1.643.122-2.438.362-.188.056-.383.085-.577.085zm-14.89-21.289c-.447 0-.811.364-.811.811s.363.811.811.811h1.373c.93 0 1.737.641 1.948 1.547 1.381 5.94 6.099 10.662 12.02 12.029.821.189 1.426.87 1.533 1.688.343-.029.688-.043 1.032-.043h10.829v-3.572c0-.584.256-1.14.699-1.52 3.586-3.068 5.642-7.526 5.642-12.232v-12.14c0-8.876-7.222-16.098-16.099-16.098-8.876 0-16.098 7.222-16.098 16.098v10.623c0 1.104-.896 2-2 2h-.879z" fill="#3762cc"/><path d="m194.876 48.537-.001.002c-3.229-4.933-8.998-8.22-15.58-8.22-1.4 0-2.536 1.074-2.536 2.399v.503c0-.593-.182-1.143-.491-1.602v-.001s-.087-.178-.345-.419c-.34-.344-.765-.607-1.244-.752-.671-.269-1.608-.491-2.899-.545v-.001c-.003 0-.005 0-.008 0-1.341-.056-3.062.07-5.272.517-1.608.176-3.143.586-4.571 1.195-.005.002-.01.003-.016.005l.001.002c-.811.347-1.585.76-2.319 1.228-.319.195-.479.318-.48.318-4.123 2.844-6.82 7.548-6.82 12.876v5.763c0 .267.22.484.492.484h23.97v12.493 4.713l2.891 5.899c.082.167.254.274.443.274h1.969.704 4.835c.759 0 1.506-.108 2.218-.313.022-.009.784-.331 1.093-.825.729-1.168 2.447-3.918 4.01-6.431 2.319-3.729 3.636-7.989 3.74-12.359.286-11.973-3.784-17.203-3.784-17.203z" fill="#4671c6"/><path d="m187.601 87.669h-7.507c-.945 0-1.824-.547-2.239-1.394l-2.892-5.898c-.134-.274-.204-.575-.204-.88v-15.207h-21.97c-1.374 0-2.492-1.114-2.492-2.484v-5.763c0-5.762 2.86-11.18 7.654-14.501.072-.053.272-.197.602-.398.776-.496 1.622-.946 2.487-1.323.058-.028.117-.054.178-.076 1.584-.668 3.257-1.106 4.975-1.303 2.124-.424 4.029-.605 5.664-.537v.001c1.382.063 2.53.283 3.491.656.445.145.869.353 1.257.616.754-.54 1.685-.859 2.69-.859 7.029 0 13.451 3.378 17.199 9.043.476.641 4.453 6.375 4.166 18.427-.11 4.672-1.508 9.294-4.041 13.368-1.563 2.514-3.282 5.267-4.012 6.435-.606.972-1.704 1.481-2.025 1.614-.069.028-.14.053-.211.074-.902.258-1.835.389-2.77.389zm-6.57-4h6.569c.513 0 1.024-.066 1.522-.196.051-.028.108-.063.148-.092.759-1.215 2.429-3.89 3.951-6.338 2.156-3.467 3.346-7.392 3.439-11.351.249-10.47-3.018-15.431-3.349-15.904-.039-.05-.076-.101-.111-.155-3-4.581-8.198-7.316-13.907-7.316-.316 0-.536.21-.536.399v.503c0 1.104-.896 2-2 2s-2-.896-2-2c0-.174-.05-.336-.147-.481-.016-.022-.03-.045-.045-.068-.021-.021-.053-.052-.066-.066-.112-.114-.251-.198-.4-.243-.056-.017-.11-.036-.164-.058-.394-.158-1.101-.356-2.238-.404-.008 0-.016 0-.023-.001-1.332-.057-2.938.108-4.775.479-.06.012-.119.021-.179.028-1.385.151-2.73.503-4.001 1.045-.005.002-.011.004-.016.006-.696.298-1.379.66-2.03 1.076-.235.144-.345.223-.359.234-.02.015-.041.03-.062.044-3.729 2.572-5.955 6.77-5.955 11.229v4.247h22.462c1.104 0 2 .896 2 2v16.743zm-6.7-41.549c.054.224.137.408.219.524-.1-.166-.172-.343-.219-.524zm.371-1.746c-.196.244-.313.505-.375.762.067-.272.193-.533.375-.761zm.015-.019-.001.002c.042-.051.086-.101.134-.148-.048.048-.092.097-.133.146zm.135-.147c-.001 0-.001.001-.002.001.001-.001.001-.001.002-.001z" fill="#3762cc"/><circle cx="176.348" cy="72.121" fill="#f9cfcf" r="6.407"/><path d="m52.925 71.595h-.88v-10.623c0-9.995-8.103-18.098-18.098-18.098s-18.098 8.103-18.098 18.098v12.14c0 5.505 2.461 10.433 6.34 13.752v2.01 1.867 1.73c.227-.015.453-.035.684-.035h12.146c1.049 0 2.06.159 3.015.448v-2.143c6.704-1.548 11.96-6.826 13.517-13.525h1.374c1.552 0 2.811-1.258 2.811-2.811-.001-1.552-1.259-2.81-2.811-2.81z" fill="#f9cfcf"/><path d="m22.872 92.436h12.146c5.749 0 10.409 4.66 10.409 10.409v6.505 9.726h-32.963v-9.726-6.505c0-5.748 4.66-10.409 10.408-10.409z" fill="#6bdddd"/><path d="m45.427 121.077h-32.963c-1.104 0-2-.896-2-2v-16.231c0-6.842 5.566-12.409 12.408-12.409h12.146c6.842 0 12.408 5.566 12.408 12.409v16.231c.001 1.104-.895 2-1.999 2zm-30.963-4h28.963v-14.231c0-4.637-3.771-8.409-8.408-8.409h-12.147c-4.637 0-8.408 3.772-8.408 8.409z" fill="#3762cc"/><path d="m45.427 71.742c.922 0 1.669-.747 1.669-1.669v-2.782c0-.922-.747-1.669-1.669-1.669-.922 0-1.669.747-1.669 1.669v2.782c0 .922.747 1.669 1.669 1.669z" fill="#3762cc"/><circle cx="31.131" cy="72.121" fill="#f9cfcf" r="6.407"/><path d="m38.033 94.884c-.194 0-.389-.028-.579-.085-.793-.24-1.612-.362-2.436-.362h-12.146c-.141 0-.278.011-.417.021l-.134.009c-.551.037-1.096-.157-1.499-.535-.404-.378-.634-.907-.634-1.46v-4.715c-4.04-3.796-6.34-9.082-6.34-14.644v-12.14c0-11.082 9.016-20.098 20.098-20.098s20.098 9.016 20.098 20.098v8.754c2.114.506 3.691 2.412 3.691 4.679 0 2.603-2.078 4.73-4.662 4.808-1.974 6.172-6.883 11.085-13.04 13.05v.62c0 .633-.3 1.229-.808 1.606-.349.259-.768.394-1.192.394zm-13.845-4.447h10.83c.345 0 .688.015 1.031.043.107-.818.712-1.498 1.533-1.688 5.922-1.367 10.64-6.089 12.02-12.029.211-.906 1.018-1.547 1.948-1.547h1.374c.447 0 .811-.364.811-.811s-.363-.811-.811-.811h-.881c-1.104 0-2-.896-2-2v-10.622c0-8.876-7.222-16.098-16.098-16.098s-16.098 7.222-16.098 16.098v12.14c0 4.706 2.056 9.165 5.641 12.232.443.38.699.935.699 1.52v3.573z" fill="#3762cc"/><path d="m12.604 48.537.001.002c3.229-4.933 8.998-8.22 15.58-8.22 1.4 0 2.536 1.074 2.536 2.399v.503c0-.593.181-1.143.491-1.602v-.001s.087-.178.345-.419c.34-.344.765-.607 1.244-.752.671-.269 1.608-.491 2.899-.545v-.001h.008c1.341-.056 3.062.07 5.272.517 1.608.176 3.143.586 4.571 1.195.005.002.01.003.016.005l-.001.002c.811.347 1.585.76 2.319 1.228.319.195.479.318.48.318 4.123 2.844 6.82 7.548 6.82 12.876v5.763c0 .267-.22.484-.492.484h-23.973v12.493 4.713l-2.891 5.899c-.082.167-.254.274-.443.274h-1.969-.704-4.835c-.759 0-1.506-.108-2.218-.313-.022-.009-.784-.331-1.093-.825-.729-1.168-2.447-3.918-4.01-6.431-2.319-3.729-3.636-7.989-3.74-12.359-.284-11.973 3.787-17.203 3.787-17.203z" fill="#4671c6"/><path d="m27.386 87.669h-7.508c-.936 0-1.868-.131-2.771-.391-.08-.023-.16-.052-.236-.084-.409-.175-1.424-.683-1.999-1.602-.73-1.169-2.449-3.922-4.013-6.436-2.532-4.072-3.93-8.694-4.041-13.368-.286-12.051 3.691-17.786 4.167-18.427 3.747-5.665 10.169-9.043 17.199-9.043 1.005 0 1.935.319 2.688.857.38-.257.809-.468 1.26-.614.971-.377 2.132-.598 3.454-.656.019-.001.038-.002.057-.002 1.633-.065 3.528.115 5.645.538 1.738.2 3.429.646 5.026 1.326.013.005.025.01.037.016.896.384 1.773.848 2.608 1.381.302.185.497.326.571.38 4.792 3.321 7.652 8.738 7.652 14.5v5.763c0 1.37-1.118 2.484-2.492 2.484h-21.97v15.207c0 .305-.069.606-.204.88l-2.891 5.899c-.415.845-1.294 1.392-2.239 1.392zm-9.026-4.194c.496.129 1.006.195 1.518.195h6.569l2.272-4.637v-16.743c0-1.104.896-2 2-2h22.463v-4.247c0-4.459-2.227-8.657-5.956-11.229-.022-.016-.044-.032-.066-.048-.014-.011-.121-.089-.321-.211-.679-.433-1.357-.793-2.049-1.09-.01-.003-.019-.007-.027-.011-1.271-.542-2.617-.895-4.003-1.046-.061-.007-.12-.016-.179-.028-1.845-.373-3.463-.533-4.792-.479-.032.001-.063.001-.099.002-1.05.047-1.754.245-2.146.402-.054.022-.109.041-.165.058-.149.045-.289.13-.403.245 0 0-.043.042-.066.066-.013.021-.026.042-.04.062-.1.148-.15.312-.15.486 0 1.104-.896 2-2 2s-2-.896-2-2v-.503c0-.189-.22-.399-.535-.399-5.71 0-10.908 2.735-13.906 7.315-.035.054-.073.105-.112.155-.33.472-3.598 5.433-3.35 15.904.095 3.96 1.284 7.885 3.439 11.351 1.522 2.448 3.192 5.123 3.951 6.337.039.027.097.062.153.093zm14.641-40.964c-.001.001-.001.002-.001.003 0-.001 0-.002.001-.003zm.002-.004c-.001.001-.001.002-.002.003.001-.001.001-.002.002-.003z" fill="#3762cc"/><circle cx="31.131" cy="72.121" fill="#f9cfcf" r="6.407"/><ellipse cx="103.76" cy="111.01" fill="#a4c9ff" rx="58.308" ry="30.101"/><path d="m103.761 143.111c-33.818 0-60.309-14.101-60.309-32.101s26.49-32.101 60.309-32.101c33.817 0 60.308 14.101 60.308 32.101s-26.491 32.101-60.308 32.101zm0-60.202c-31.049 0-56.309 12.606-56.309 28.101s25.26 28.101 56.309 28.101c31.048 0 56.308-12.606 56.308-28.101s-25.26-28.101-56.308-28.101z" fill="#3762cc"/><path d="m162.069 111.01c0 16.624-26.106 30.101-58.308 30.101-32.203 0-58.308-13.477-58.308-30.101v10.555c0 16.624 26.106 30.101 58.308 30.101s58.308-13.477 58.308-30.101z" fill="#e0ebfc"/><path d="m103.761 153.667c-33.818 0-60.309-14.101-60.309-32.102v-10.555c0-1.104.896-2 2-2s2 .896 2 2c0 15.495 25.26 28.101 56.309 28.101 31.048 0 56.308-12.606 56.308-28.101 0-1.104.896-2 2-2s2 .896 2 2l.001 10.555c-.001 18.001-26.491 32.102-60.309 32.102zm-56.255-30.864c1.304 14.923 26.038 26.864 56.255 26.864 30.219 0 54.954-11.941 56.255-26.865-8.657 12.002-30.298 20.31-56.255 20.31-25.956-.001-47.596-8.308-56.255-20.309z" fill="#3762cc"/><path d="m164.449 160.22h-3.173c-.007 0-.014-.001-.02-.001l-.001.001h-20.873c-5.514 0-9.985 4.47-9.985 9.985v5.009 1.422 2.634 9.463h.466 5.403 38.168v-9.463-2.634-1.422-5.009c0-5.515-4.471-9.985-9.985-9.985z" fill="#6bdddd"/><path d="m172.117 131.787c-.042 0-.082.005-.124.006v-1.833c0-10.715-8.765-19.402-19.578-19.402-10.813 0-19.578 8.686-19.578 19.402v1.833c-.042-.001-.082-.006-.124-.006-3.299 0-5.973 2.65-5.973 5.919s2.674 5.919 5.973 5.919c.217 0 .43-.013.641-.035 2.02 8.583 9.784 14.979 19.061 14.979 9.277 0 17.041-6.396 19.061-14.979.211.022.424.035.641.035 3.299 0 5.973-2.65 5.973-5.919s-2.675-5.919-5.973-5.919z" fill="#f9cfcf"/><path d="m142.686 141.351c-1.303 0-2.364-1.06-2.364-2.363v-3.939c0-1.303 1.06-2.363 2.364-2.363 1.303 0 2.363 1.06 2.363 2.363v3.939c0 1.303-1.06 2.363-2.363 2.363z" fill="#3762cc"/><path d="m162.051 141.351c-1.303 0-2.364-1.06-2.364-2.363v-3.939c0-1.303 1.06-2.363 2.364-2.363 1.303 0 2.363 1.06 2.363 2.363v3.939c.001 1.303-1.06 2.363-2.363 2.363z" fill="#3762cc"/><path d="m152.415 160.569c-9.544 0-17.795-6.089-20.589-14.993-3.98-.439-7.086-3.801-7.086-7.87 0-3.725 2.603-6.858 6.097-7.698v-.048c0-11.801 9.68-21.402 21.578-21.402s21.578 9.601 21.578 21.402v.048c3.494.84 6.097 3.973 6.097 7.698 0 4.069-3.105 7.431-7.086 7.87-2.794 8.904-11.045 14.993-20.589 14.993zm-19.059-18.979c.917 0 1.73.631 1.945 1.542 1.861 7.912 8.898 13.437 17.113 13.437s15.252-5.525 17.113-13.437c.231-.982 1.16-1.642 2.159-1.531.142.015.284.024.43.024 2.19 0 3.973-1.758 3.973-3.919 0-2.148-1.761-3.898-3.934-3.919-.075.004-.129.006-.163.006-.521 0-1.023-.204-1.397-.569-.385-.376-.603-.893-.603-1.431v-1.833c0-9.595-7.886-17.402-17.578-17.402s-17.578 7.807-17.578 17.402v1.833c0 .539-.218 1.055-.603 1.431-.386.376-.856.594-1.445.568-.031-.001-.118-.005-.15-.008-2.116.002-3.898 1.76-3.898 3.921s1.782 3.919 3.973 3.919c.146 0 .288-.009.43-.024.071-.006.142-.01.213-.01z" fill="#3762cc"/><path d="m148.322 128.466h-20.288c-.714 0-1.293-.579-1.293-1.293v-5.177c0-9.754 7.907-17.662 17.662-17.662h9.416c2.679 0 4.85 2.172 4.85 4.85v8.935c0 5.714-4.633 10.347-10.347 10.347z" fill="#4671c6"/><path d="m176.796 128.466h-7.781c-5.715 0-10.347-4.633-10.347-10.347v-8.935c0-2.679 2.172-4.85 4.85-4.85 8.047 0 14.571 6.524 14.571 14.571v8.268c.001.714-.578 1.293-1.293 1.293z" fill="#4671c6"/><path d="m152.415 158.569c-3.199 0-6.218-.761-8.884-2.11v3.391c0 4.905 3.976 8.881 8.881 8.881s8.881-3.976 8.881-8.881v-3.388c-2.664 1.347-5.681 2.107-8.878 2.107z" fill="#f9cfcf"/><path d="m148.321 130.466h-20.287c-1.816 0-3.294-1.478-3.294-3.293v-5.177c0-10.842 8.82-19.662 19.662-19.662h9.416c3.777 0 6.851 3.073 6.851 6.851v8.935c0 6.807-5.539 12.346-12.348 12.346zm-19.581-4h19.581c4.603 0 8.348-3.745 8.348-8.347v-8.935c0-1.572-1.278-2.851-2.851-2.851h-9.416c-8.636 0-15.662 7.026-15.662 15.662z" fill="#3762cc"/><path d="m176.796 130.466h-7.78c-6.808 0-12.347-5.539-12.347-12.347v-8.935c0-3.777 3.072-6.851 6.85-6.851 9.138 0 16.571 7.434 16.571 16.571v8.268c0 1.816-1.478 3.294-3.294 3.294zm-13.277-24.133c-1.571 0-2.85 1.279-2.85 2.851v8.935c0 4.603 3.744 8.347 8.347 8.347h7.074v-7.562c0-6.931-5.64-12.571-12.571-12.571z" fill="#3762cc"/><path d="m174.434 190.732h-44.037c-1.104 0-2-.896-2-2v-18.528c0-6.608 5.376-11.984 11.984-11.984h1.15v-1.761c0-.695.36-1.34.952-1.704.591-.365 1.33-.396 1.95-.081 2.485 1.257 5.171 1.895 7.981 1.895s5.493-.637 7.977-1.892c.619-.314 1.358-.284 1.95.081.592.364.952 1.009.952 1.704v1.758h1.155c6.608 0 11.984 5.376 11.984 11.984v18.528c.002 1.105-.894 2-1.998 2zm-42.038-4h40.037v-16.528c0-4.403-3.582-7.984-7.984-7.984h-3.173c-.541 0-1.06-.219-1.437-.608s-.579-.914-.563-1.455l.012-.695c-4.402 1.472-9.358 1.471-13.758-.003l.017.682c.021.544-.179 1.073-.557 1.465-.377.392-.897.614-1.441.614h-3.169c-4.402 0-7.984 3.582-7.984 7.984z" fill="#3762cc"/><path d="m217.966 189.268c.955-.289 1.966-.447 3.015-.447h12.146c.231 0 .457.02.684.035v-1.73-1.867-2.01c3.879-3.319 6.34-8.247 6.34-13.752v-12.14c0-9.995-8.103-18.098-18.098-18.098s-18.098 8.103-18.098 18.098v10.623h-.88c-1.552 0-2.811 1.258-2.811 2.811s1.258 2.811 2.811 2.811h1.374c1.557 6.699 6.814 11.977 13.517 13.525z" fill="#f9cfcf"/><path d="m217.967 191.268c-.424 0-.843-.135-1.192-.394-.508-.377-.808-.973-.808-1.606v-.62c-6.157-1.965-11.066-6.878-13.04-13.05-2.584-.078-4.662-2.205-4.662-4.808 0-2.268 1.577-4.173 3.691-4.679v-8.754c0-11.082 9.016-20.098 20.098-20.098s20.098 9.016 20.098 20.098v12.14c0 5.563-2.3 10.848-6.34 14.645v4.714c0 .554-.229 1.082-.634 1.46-.403.378-.933.568-1.499.535l-.134-.009c-.139-.01-.276-.021-.417-.021h-12.146c-.823 0-1.643.122-2.436.362-.191.057-.385.085-.579.085zm-14.892-21.289c-.447 0-.811.364-.811.811s.363.811.811.811h1.374c.931 0 1.737.641 1.948 1.547 1.38 5.94 6.098 10.662 12.02 12.029.821.189 1.426.87 1.533 1.688.343-.028.687-.043 1.031-.043h10.83v-3.572c0-.584.256-1.14.699-1.52 3.585-3.068 5.641-7.527 5.641-12.233v-12.14c0-8.876-7.222-16.098-16.098-16.098s-16.098 7.221-16.098 16.098v10.623c0 1.104-.896 2-2 2h-.88z" fill="#3762cc"/><path d="m210.573 168.126c-.922 0-1.669-.747-1.669-1.669v-2.782c0-.922.747-1.669 1.669-1.669.922 0 1.669.747 1.669 1.669v2.782c0 .922-.747 1.669-1.669 1.669z" fill="#3762cc"/><circle cx="224.869" cy="168.506" fill="#f9cfcf" r="6.407"/><path d="m243.396 144.921-.001.002c-3.229-4.933-8.998-8.22-15.58-8.22-1.4 0-2.536 1.074-2.536 2.399v.503c0-.593-.181-1.143-.491-1.602v-.001s-.087-.178-.345-.419c-.34-.344-.765-.607-1.243-.752-.671-.269-1.608-.491-2.899-.545v-.001c-.003 0-.005 0-.008 0-1.341-.056-3.062.07-5.272.517-1.608.176-3.143.586-4.571 1.195-.005.002-.01.003-.016.005l.001.002c-.811.347-1.585.76-2.319 1.228-.319.195-.479.318-.48.318-4.123 2.844-6.82 7.548-6.82 12.876v5.763c0 .267.22.484.492.484h23.97v12.493 4.713l2.891 5.899c.082.167.254.274.443.274h1.969.704 4.835c.759 0 1.506-.108 2.218-.313.022-.009.784-.331 1.093-.825.729-1.168 2.447-3.918 4.01-6.431 2.319-3.729 3.636-7.989 3.74-12.359.286-11.972-3.785-17.203-3.785-17.203z" fill="#4671c6"/><path d="m236.122 184.054h-7.508c-.945 0-1.824-.547-2.239-1.394l-2.891-5.899c-.135-.274-.204-.575-.204-.88v-15.207h-21.97c-1.374 0-2.492-1.114-2.492-2.483v-5.763c0-5.762 2.86-11.18 7.653-14.5.075-.056.275-.199.603-.4.806-.514 1.683-.979 2.576-1.361.01-.004.021-.009.031-.013 1.6-.682 3.292-1.128 5.032-1.328 2.124-.424 4.03-.603 5.664-.537v.001c1.382.063 2.53.283 3.491.656.445.145.869.353 1.258.617.753-.54 1.684-.859 2.689-.859 7.03 0 13.452 3.378 17.199 9.043.476.641 4.453 6.375 4.167 18.426-.111 4.674-1.509 9.296-4.041 13.368-1.563 2.515-3.282 5.267-4.012 6.435-.576.921-1.591 1.428-2 1.604-.076.033-.156.062-.236.084-.902.258-1.834.39-2.77.39zm-6.569-4h6.569c.512 0 1.021-.065 1.519-.195.056-.03.113-.065.152-.094.758-1.212 2.428-3.887 3.951-6.337 2.155-3.466 3.345-7.391 3.439-11.351.248-10.482-3.027-15.445-3.342-15.894-.042-.052-.082-.107-.12-.165-2.998-4.581-8.196-7.315-13.906-7.315-.315 0-.535.21-.535.399v.503c0 1.104-.896 2-2 2s-2-.896-2-2c0-.173-.05-.335-.148-.481-.016-.023-.031-.046-.046-.07-.021-.021-.05-.049-.063-.063-.114-.115-.254-.2-.403-.245-.056-.017-.11-.036-.164-.058-.394-.158-1.102-.356-2.238-.404-.008 0-.016 0-.023-.001-1.331-.057-2.938.108-4.775.479-.059.012-.118.021-.179.028-1.386.152-2.732.504-4.003 1.046-.024.011-.05.021-.075.03-.675.295-1.338.648-1.97 1.052-.231.142-.339.22-.353.23-.022.016-.044.032-.066.048-3.729 2.572-5.956 6.77-5.956 11.229v4.247h22.463c1.104 0 2 .896 2 2v16.743zm-6.643-41.362c.047.13.099.232.14.3-.055-.096-.102-.196-.14-.3zm-.083-1.081c0 .001 0 .001 0 0zm.001-.004c-.001.001-.001.001-.001.002 0 0 0-.001.001-.002zm0-.003v.002c0-.001 0-.001 0-.002zm.001-.003s0 .001-.001.002c.001 0 .001-.001.001-.002z" fill="#3762cc"/><circle cx="224.869" cy="168.506" fill="#f9cfcf" r="6.407"/><path d="m233.128 188.821h-12.146c-5.749 0-10.409 4.66-10.409 10.409v6.505 9.726h32.963v-9.726-6.505c0-5.749-4.66-10.409-10.408-10.409z" fill="#e0ebfc"/><path d="m243.536 217.461h-32.963c-1.104 0-2-.896-2-2v-16.231c0-6.842 5.566-12.409 12.408-12.409h12.146c6.842 0 12.408 5.566 12.408 12.409v16.231c.001 1.104-.894 2-1.999 2zm-30.963-4h28.963v-14.231c0-4.637-3.771-8.409-8.408-8.409h-12.146c-4.637 0-8.408 3.772-8.408 8.409v14.231z" fill="#3762cc"/><path d="m101.445 167.979h-.88v-10.623c0-9.995-8.103-18.098-18.098-18.098s-18.098 8.103-18.098 18.098v12.14c0 5.505 2.461 10.433 6.34 13.752v2.01 1.867 1.73c.227-.015.453-.035.684-.035h12.146c1.049 0 2.06.159 3.015.447v-2.143c6.704-1.548 11.96-6.826 13.517-13.525h1.374c1.552 0 2.811-1.258 2.811-2.811s-1.258-2.809-2.811-2.809z" fill="#f9cfcf"/><path d="m86.555 191.268c-.193 0-.389-.028-.578-.085-.795-.24-1.615-.362-2.438-.362h-12.145c-.142 0-.28.011-.419.021l-.131.009c-.563.033-1.096-.157-1.5-.535s-.634-.907-.634-1.46v-4.714c-4.041-3.796-6.341-9.082-6.341-14.645v-12.14c0-11.082 9.017-20.098 20.099-20.098s20.098 9.016 20.098 20.098v8.754c2.114.506 3.69 2.412 3.69 4.679 0 2.603-2.077 4.729-4.661 4.808-1.975 6.172-6.884 11.085-13.04 13.05v.62c0 .633-.3 1.229-.808 1.606-.349.259-.768.394-1.192.394zm-13.845-4.447h10.829c.345 0 .689.015 1.032.043.107-.818.712-1.499 1.533-1.688 5.921-1.367 10.639-6.089 12.02-12.029.211-.906 1.019-1.547 1.948-1.547h1.373c.447 0 .811-.364.811-.811s-.363-.811-.811-.811h-.88c-1.104 0-2-.896-2-2v-10.623c0-8.876-7.222-16.098-16.098-16.098-8.877 0-16.099 7.221-16.099 16.098v12.14c0 4.707 2.056 9.165 5.642 12.233.443.38.699.935.699 1.52v3.573z" fill="#3762cc"/><path d="m93.948 168.126c.922 0 1.669-.747 1.669-1.669v-2.782c0-.922-.747-1.669-1.669-1.669-.922 0-1.669.747-1.669 1.669v2.782c0 .922.747 1.669 1.669 1.669z" fill="#3762cc"/><circle cx="79.652" cy="168.506" fill="#f9cfcf" r="6.407"/><path d="m61.124 144.921.001.002c3.229-4.933 8.998-8.22 15.58-8.22 1.4 0 2.536 1.074 2.536 2.399v.503c0-.593.181-1.143.491-1.602v-.001s.087-.178.345-.419c.34-.344.765-.607 1.244-.752.671-.269 1.608-.491 2.899-.545v-.001h.007c1.341-.056 3.062.07 5.272.517 1.608.176 3.143.586 4.571 1.195.005.002.01.003.016.005l-.001.002c.811.347 1.585.76 2.319 1.228.319.195.479.318.48.318 4.123 2.844 6.82 7.548 6.82 12.876v5.763c0 .267-.22.484-.492.484h-23.97v12.493 4.713l-2.891 5.899c-.082.167-.254.274-.443.274h-1.969-.704-4.835c-.759 0-1.506-.108-2.218-.313-.022-.009-.784-.331-1.093-.825-.729-1.168-2.447-3.918-4.01-6.431-2.319-3.729-3.636-7.989-3.74-12.359-.285-11.972 3.785-17.203 3.785-17.203z" fill="#4671c6"/><path d="m75.906 184.054h-7.507c-.936 0-1.868-.131-2.771-.391-.071-.021-.142-.045-.211-.074-.321-.133-1.419-.643-2.026-1.615-.729-1.167-2.447-3.919-4.011-6.434-2.533-4.073-3.931-8.696-4.041-13.368-.287-12.051 3.69-17.786 4.166-18.426 3.748-5.665 10.17-9.043 17.199-9.043 1.005 0 1.935.318 2.688.857.38-.256.809-.468 1.261-.614.973-.377 2.134-.598 3.453-.656.019-.001.038-.002.058-.002 1.625-.066 3.527.115 5.644.538 1.724.198 3.402.638 4.991 1.311.027.01.053.021.077.031.895.385 1.77.85 2.603 1.38.304.185.5.327.571.379 4.793 3.321 7.653 8.739 7.653 14.501v5.763c0 1.369-1.118 2.483-2.492 2.483h-21.97v15.207c0 .305-.07.606-.204.88l-2.892 5.899c-.415.846-1.293 1.394-2.239 1.394zm-9.026-4.196c.497.13 1.008.195 1.52.195h6.569l2.272-4.637v-16.743c0-1.104.896-2 2-2h22.462v-4.247c0-4.459-2.227-8.657-5.955-11.229-.021-.014-.042-.029-.062-.044-.015-.011-.124-.09-.327-.214-.686-.437-1.369-.799-2.063-1.096-.005-.002-.011-.004-.016-.006-1.271-.542-2.616-.894-4.001-1.045-.06-.007-.119-.016-.179-.028-1.845-.374-3.464-.532-4.792-.479-.033.002-.065.001-.099.002-1.048.047-1.754.245-2.147.403-.054.021-.107.041-.163.057-.149.045-.288.129-.4.243 0 0-.045.045-.069.069-.014.021-.026.042-.041.063-.099.146-.148.31-.148.485 0 1.104-.896 2-2 2s-2-.896-2-2v-.503c0-.189-.22-.399-.536-.399-5.709 0-10.907 2.735-13.907 7.316-.035.054-.072.105-.111.154-.331.474-3.598 5.434-3.349 15.904.094 3.959 1.283 7.884 3.439 11.351 1.523 2.449 3.193 5.125 3.951 6.338.04.026.097.061.152.09zm14.642-40.964c-.001.001-.001.001-.001.002 0 0 0-.001.001-.002zm.002-.004c-.001.001-.001.002-.002.003.001-.001.001-.002.002-.003z" fill="#3762cc"/><circle cx="79.652" cy="168.506" fill="#f9cfcf" r="6.407"/><path d="m71.393 188.821h12.146c5.749 0 10.409 4.66 10.409 10.409v6.505 9.726h-32.964v-9.726-6.505c0-5.749 4.661-10.409 10.409-10.409z" fill="#f9a7a7"/><path d="m93.948 217.461h-32.964c-1.104 0-2-.896-2-2v-16.231c0-6.842 5.566-12.409 12.409-12.409h12.146c6.843 0 12.409 5.566 12.409 12.409v16.231c0 1.104-.895 2-2 2zm-30.964-4h28.964v-14.231c0-4.637-3.772-8.409-8.409-8.409h-12.145c-4.637 0-8.409 3.772-8.409 8.409v14.231z" fill="#3762cc"/><ellipse cx="152.26" cy="207.394" fill="#a4c9ff" rx="58.308" ry="30.101"/><path d="m152.261 239.495c-33.818 0-60.309-14.101-60.309-32.101s26.49-32.101 60.309-32.101c33.817 0 60.308 14.101 60.308 32.101s-26.491 32.101-60.308 32.101zm0-60.202c-31.049 0-56.309 12.606-56.309 28.101s25.26 28.101 56.309 28.101c31.048 0 56.308-12.606 56.308-28.101s-25.26-28.101-56.308-28.101z" fill="#3762cc"/><path d="m210.569 207.394c0 16.624-26.106 30.101-58.308 30.101-32.203 0-58.308-13.477-58.308-30.101v10.555c0 16.624 26.106 30.101 58.308 30.101s58.308-13.477 58.308-30.101z" fill="#e0ebfc"/><path d="m152.261 250.051c-33.818 0-60.309-14.101-60.309-32.101v-10.556c0-1.104.896-2 2-2s2 .896 2 2c0 15.495 25.26 28.101 56.309 28.101 31.048 0 56.308-12.606 56.308-28.101 0-1.104.896-2 2-2s2 .896 2 2l.001 10.556c-.001 18-26.491 32.101-60.309 32.101zm-56.255-30.864c1.301 14.924 26.036 26.864 56.255 26.864s54.954-11.941 56.255-26.865c-8.657 12.002-30.298 20.31-56.255 20.31-25.956-.001-47.596-8.308-56.255-20.309z" fill="#3762cc"/></svg>