<svg id="Layer_1" enable-background="new 0 0 256 256" height="512" viewBox="0 0 256 256" width="512" xmlns="http://www.w3.org/2000/svg"><path d="m198.967 248h-162c-5.523 0-10-4.477-10-10v-220c0-5.523 4.477-10 10-10h162c5.523 0 10 4.477 10 10v220c0 5.523-4.477 10-10 10z" fill="#e0ebfc"/><path d="m198.967 250h-162c-6.617 0-12-5.383-12-12v-220c0-6.617 5.383-12 12-12h162c6.617 0 12 5.383 12 12v220c0 6.617-5.383 12-12 12zm-162-240c-4.411 0-8 3.589-8 8v220c0 4.411 3.589 8 8 8h162c4.411 0 8-3.589 8-8v-220c0-4.411-3.589-8-8-8z" fill="#3762cc"/><path d="m184.717 219.905h-102c-2.209 0-4-1.791-4-4s1.791-4 4-4h102c2.209 0 4 1.791 4 4s-1.791 4-4 4z" fill="#a4c9ff"/><path d="m67.967 229.322h-19.25c-2.209 0-4-1.791-4-4v-19.25c0-2.209 1.791-4 4-4h19.25c2.209 0 4 1.791 4 4v19.25c0 2.209-1.791 4-4 4z" fill="#a4c9ff"/><path d="m60.463 225.496c-1.85 0-3.616-.864-4.75-2.333l-7.075-9.159c-1.351-1.748-1.028-4.26.72-5.611 1.75-1.351 4.261-1.028 5.611.72l5.4 6.991 14.964-21.734c1.252-1.82 3.745-2.279 5.563-1.026 1.82 1.253 2.279 3.743 1.026 5.563l-16.518 23.992c-1.083 1.573-2.869 2.543-4.778 2.595-.056.001-.109.002-.163.002z" fill="#4671c6"/><path d="m184.717 179.905h-102c-2.209 0-4-1.791-4-4s1.791-4 4-4h102c2.209 0 4 1.791 4 4s-1.791 4-4 4z" fill="#a4c9ff"/><path d="m67.967 189.322h-19.25c-2.209 0-4-1.791-4-4v-19.25c0-2.209 1.791-4 4-4h19.25c2.209 0 4 1.791 4 4v19.25c0 2.209-1.791 4-4 4z" fill="#a4c9ff"/><path d="m60.463 185.496c-1.85 0-3.616-.864-4.75-2.333l-7.075-9.159c-1.351-1.748-1.028-4.26.72-5.611 1.75-1.351 4.261-1.028 5.611.72l5.4 6.991 14.964-21.734c1.252-1.82 3.745-2.279 5.563-1.026 1.82 1.253 2.279 3.743 1.026 5.563l-16.518 23.992c-1.083 1.573-2.869 2.543-4.778 2.595-.056.001-.109.002-.163.002z" fill="#4671c6"/><path d="m192.224 117.579h-148.514c-2.186 0-3.959-1.772-3.959-3.959 0-2.186 1.772-3.959 3.959-3.959h148.514c2.186 0 3.959 1.772 3.959 3.959 0 2.187-1.773 3.959-3.959 3.959z" fill="#6bdddd"/><path d="m186.218 109.662h-136.502c0-36.186 29.335-65.521 65.521-65.521h5.46c36.186 0 65.521 29.335 65.521 65.521z" fill="#4671c6"/><g fill="#a4c9ff"><path d="m89.534 97.165h-8.818c-1.273 0-2.182-.285-2.727-.856s-.817-1.479-.817-2.726v-21.692c0-1.273.279-2.188.837-2.746s1.459-.837 2.707-.837h9.35c1.378 0 2.572.086 3.583.256 1.01.171 1.916.499 2.716.984.682.407 1.286.922 1.811 1.545.524.623.925 1.312 1.201 2.067.275.755.413 1.552.413 2.392 0 2.887-1.444 5-4.331 6.338 3.792 1.208 5.689 3.556 5.689 7.047 0 1.614-.414 3.068-1.24 4.36-.827 1.293-1.942 2.247-3.346 2.864-.879.368-1.89.627-3.031.778-1.142.15-2.474.226-3.997.226zm-6.515-24.467v7.46h5.354c1.457 0 2.582-.138 3.376-.413.793-.275 1.4-.8 1.82-1.575.328-.551.492-1.168.492-1.85 0-1.457-.519-2.424-1.555-2.903-1.037-.479-2.618-.719-4.744-.719zm6.083 11.652h-6.083v8.425h6.279c3.95 0 5.925-1.424 5.925-4.271 0-1.457-.512-2.513-1.536-3.169-1.023-.656-2.552-.985-4.585-.985z"/><path d="m125.221 72.816h-13.168v7.086h12.125c.892 0 1.558.2 1.997.6.439.401.66.929.66 1.585s-.217 1.191-.65 1.604-1.102.62-2.007.62h-12.125v8.208h13.621c.919 0 1.611.213 2.077.64s.698.994.698 1.703c0 .682-.232 1.237-.698 1.663-.466.427-1.158.64-2.077.64h-15.884c-1.273 0-2.188-.282-2.746-.846s-.836-1.476-.836-2.736v-21.692c0-.84.125-1.525.374-2.057.249-.531.64-.918 1.171-1.161.532-.243 1.211-.364 2.038-.364h15.432c.932 0 1.624.207 2.076.62.453.413.68.955.68 1.624 0 .682-.227 1.23-.68 1.644-.454.412-1.146.619-2.078.619z"/><path d="m145.79 67.816c2.991 0 5.561.607 7.706 1.821 2.146 1.214 3.77 2.939 4.871 5.177 1.103 2.238 1.654 4.865 1.654 7.883 0 2.231-.303 4.259-.906 6.082-.604 1.824-1.509 3.405-2.716 4.744-1.208 1.339-2.69 2.362-4.448 3.071-1.759.708-3.773 1.063-6.043 1.063-2.258 0-4.278-.364-6.063-1.093-1.785-.728-3.274-1.755-4.469-3.081-1.194-1.325-2.097-2.92-2.706-4.783-.61-1.863-.916-3.878-.916-6.043 0-2.218.318-4.252.955-6.102s1.558-3.425 2.766-4.724c1.207-1.299 2.677-2.293 4.409-2.982 1.733-.688 3.701-1.033 5.906-1.033zm8.307 14.842c0-2.113-.342-3.943-1.024-5.492-.682-1.548-1.656-2.719-2.923-3.513s-2.72-1.191-4.359-1.191c-1.168 0-2.248.22-3.238.659-.991.44-1.844 1.08-2.559 1.919-.716.84-1.279 1.913-1.693 3.218-.413 1.306-.62 2.772-.62 4.399 0 1.64.207 3.123.62 4.448.414 1.325.997 2.425 1.752 3.297.755.873 1.621 1.526 2.599 1.959s2.05.649 3.218.649c1.496 0 2.871-.374 4.124-1.122s2.25-1.903 2.992-3.464c.74-1.56 1.111-3.483 1.111-5.766z"/><path d="m184.717 143.165h-140c-2.209 0-4-1.791-4-4s1.791-4 4-4h140c2.209 0 4 1.791 4 4s-1.791 4-4 4z"/></g><circle cx="198" cy="198.854" fill="#6bdddd" r="49"/><circle cx="198" cy="198.854" fill="#ffea92" r="35.875"/><path d="m198 249.854c-28.121 0-51-22.878-51-51s22.879-51 51-51 51 22.878 51 51-22.879 51-51 51zm0-98c-25.916 0-47 21.084-47 47s21.084 47 47 47 47-21.084 47-47-21.084-47-47-47z" fill="#3762cc"/><path d="m198 236.729c-20.885 0-37.875-16.991-37.875-37.875s16.99-37.875 37.875-37.875 37.875 16.991 37.875 37.875-16.99 37.875-37.875 37.875zm0-71.75c-18.679 0-33.875 15.196-33.875 33.875s15.196 33.875 33.875 33.875 33.875-15.196 33.875-33.875-15.196-33.875-33.875-33.875z" fill="#3762cc"/><path d="m194.417 219.496c-3.294 0-6.438-1.538-8.456-4.153l-12.596-16.306c-2.404-3.112-1.83-7.585 1.282-9.989 3.115-2.405 7.586-1.829 9.989 1.282l9.613 12.445 26.639-38.692c2.23-3.24 6.666-4.057 9.903-1.827 3.24 2.23 4.058 6.664 1.827 9.904l-29.406 42.712c-1.927 2.8-5.108 4.528-8.507 4.62-.096.002-.192.004-.288.004z" fill="#f9a7a7"/><path d="m127.308 40.986h-18.683v-5.001c0-5.159 4.182-9.341 9.341-9.341 5.159 0 9.341 4.182 9.341 9.341v5.001z" fill="#4671c6"/><path d="m112.746 40.986v3.218c.828-.031 1.656-.063 2.491-.063h5.46c.835 0 1.663.032 2.491.063v-3.218z" fill="#6bdddd"/></svg>