<svg id="Layer_1" enable-background="new 0 0 256 256" height="512" viewBox="0 0 256 256" width="512" xmlns="http://www.w3.org/2000/svg"><path d="m216.999 240.936h-177.998c-13.808 0-25.001-11.193-25.001-25.001v-153.697c0-13.807 11.193-25.001 25.001-25.001h177.999c13.807 0 25.001 11.193 25.001 25.001v153.697c-.001 13.808-11.194 25.001-25.002 25.001z" fill="#f9cfcf"/><g fill="#f9a7a7"><path d="m85.224 133.531v-22.206c0-2.23 1.808-4.037 4.038-4.037h28.262c2.23 0 4.037 1.808 4.037 4.037v22.206c0 2.23-1.808 4.037-4.037 4.037h-28.263c-2.229 0-4.037-1.808-4.037-4.037z"/><path d="m133.834 133.531v-22.206c0-2.23 1.808-4.037 4.038-4.037h28.262c2.23 0 4.037 1.808 4.037 4.037v22.206c0 2.23-1.808 4.037-4.037 4.037h-28.262c-2.23 0-4.038-1.808-4.038-4.037z"/><path d="m182.444 133.531v-22.206c0-2.23 1.808-4.037 4.037-4.037h28.262c2.23 0 4.038 1.808 4.038 4.037v22.206c0 2.23-1.808 4.037-4.038 4.037h-28.262c-2.229 0-4.037-1.808-4.037-4.037z"/><path d="m36.614 173.906v-22.206c0-2.23 1.808-4.038 4.038-4.038h28.263c2.23 0 4.037 1.808 4.037 4.038v22.206c0 2.23-1.808 4.037-4.037 4.037h-28.264c-2.23 0-4.037-1.808-4.037-4.037z"/><path d="m85.224 173.906v-22.206c0-2.23 1.808-4.038 4.038-4.038h28.262c2.23 0 4.037 1.808 4.037 4.038v22.206c0 2.23-1.808 4.037-4.037 4.037h-28.263c-2.229 0-4.037-1.808-4.037-4.037z"/><path d="m133.834 173.906v-22.206c0-2.23 1.808-4.038 4.038-4.038h28.262c2.23 0 4.037 1.808 4.037 4.038v22.206c0 2.23-1.808 4.037-4.037 4.037h-28.262c-2.23 0-4.038-1.808-4.038-4.037z"/><path d="m182.444 173.906v-22.206c0-2.23 1.808-4.038 4.037-4.038h28.262c2.23 0 4.038 1.808 4.038 4.038v22.206c0 2.23-1.808 4.037-4.038 4.037h-28.262c-2.229 0-4.037-1.808-4.037-4.037z"/><path d="m36.614 216.299v-22.206c0-2.23 1.808-4.038 4.038-4.038h28.263c2.23 0 4.037 1.808 4.037 4.038v22.206c0 2.23-1.808 4.037-4.037 4.037h-28.264c-2.23.001-4.037-1.807-4.037-4.037z"/><path d="m85.224 216.299v-22.206c0-2.23 1.808-4.038 4.038-4.038h28.262c2.23 0 4.037 1.808 4.037 4.038v22.206c0 2.23-1.808 4.037-4.037 4.037h-28.263c-2.229.001-4.037-1.807-4.037-4.037z"/><path d="m133.834 216.299v-22.206c0-2.23 1.808-4.038 4.038-4.038h28.262c2.23 0 4.037 1.808 4.037 4.038v22.206c0 2.23-1.808 4.037-4.037 4.037h-28.262c-2.23.001-4.038-1.807-4.038-4.037z"/></g><path d="m14 62.238v26.421h228v-26.421c0-13.807-11.193-25.001-25.001-25.001h-177.998c-13.808 0-25.001 11.194-25.001 25.001z" fill="#a4c9ff"/><path d="m217 242.936h-178c-14.888 0-27-12.112-27-27v-153.698c0-14.889 12.112-27.001 27-27.001h178c14.888 0 27 12.112 27 27.001v153.697c0 14.888-12.112 27.001-27 27.001zm-178-203.699c-12.683 0-23 10.318-23 23.001v153.697c0 12.683 10.318 23 23 23h178c12.683 0 23-10.317 23-23v-153.697c0-12.683-10.318-23.001-23-23.001z" fill="#3762cc"/><path d="m242 90.659h-228c-1.104 0-2-.896-2-2v-26.421c0-14.889 12.112-27.001 27-27.001h178c14.888 0 27 12.112 27 27.001v26.421c0 1.105-.896 2-2 2zm-226-4h224v-24.421c0-12.683-10.318-23.001-23-23.001h-178c-12.683 0-23 10.318-23 23.001z" fill="#3762cc"/><path d="m192.125 68.502h-.5c-6.558 0-11.875-5.317-11.875-11.875v-29.688c0-6.558 5.317-11.875 11.875-11.875h.5c6.558 0 11.875 5.317 11.875 11.875v29.688c0 6.558-5.317 11.875-11.875 11.875z" fill="#e0ebfc"/><path d="m64.375 68.502h-.5c-6.558 0-11.875-5.317-11.875-11.875v-29.688c0-6.558 5.317-11.875 11.875-11.875h.5c6.558 0 11.875 5.317 11.875 11.875v29.688c0 6.558-5.317 11.875-11.875 11.875z" fill="#e0ebfc"/><path d="m192.125 70.502h-.5c-7.651 0-13.875-6.225-13.875-13.875v-29.688c0-7.65 6.224-13.875 13.875-13.875h.5c7.651 0 13.875 6.225 13.875 13.875v29.688c0 7.65-6.224 13.875-13.875 13.875zm-.5-53.438c-5.445 0-9.875 4.43-9.875 9.875v29.688c0 5.445 4.43 9.875 9.875 9.875h.5c5.445 0 9.875-4.43 9.875-9.875v-29.688c0-5.445-4.43-9.875-9.875-9.875z" fill="#3762cc"/><path d="m64.375 70.502h-.5c-7.651 0-13.875-6.225-13.875-13.875v-29.688c0-7.65 6.224-13.875 13.875-13.875h.5c7.651 0 13.875 6.225 13.875 13.875v29.688c0 7.65-6.225 13.875-13.875 13.875zm-.5-53.438c-5.445 0-9.875 4.43-9.875 9.875v29.688c0 5.445 4.43 9.875 9.875 9.875h.5c5.445 0 9.875-4.43 9.875-9.875v-29.688c0-5.445-4.43-9.875-9.875-9.875z" fill="#3762cc"/><path d="m127.948 68.502h-.5c-6.558 0-11.875-5.317-11.875-11.875v-29.688c0-6.558 5.317-11.875 11.875-11.875h.5c6.558 0 11.875 5.317 11.875 11.875v29.688c0 6.558-5.317 11.875-11.875 11.875z" fill="#e0ebfc"/><path d="m192.125 70.502h-.5c-7.651 0-13.875-6.225-13.875-13.875v-29.688c0-7.65 6.224-13.875 13.875-13.875h.5c7.651 0 13.875 6.225 13.875 13.875v29.688c0 7.65-6.224 13.875-13.875 13.875zm-.5-53.438c-5.445 0-9.875 4.43-9.875 9.875v29.688c0 5.445 4.43 9.875 9.875 9.875h.5c5.445 0 9.875-4.43 9.875-9.875v-29.688c0-5.445-4.43-9.875-9.875-9.875z" fill="#3762cc"/><path d="m127.948 70.502h-.5c-7.651 0-13.875-6.225-13.875-13.875v-29.688c0-7.65 6.224-13.875 13.875-13.875h.5c7.651 0 13.875 6.225 13.875 13.875v29.688c0 7.65-6.224 13.875-13.875 13.875zm-.5-53.438c-5.445 0-9.875 4.43-9.875 9.875v29.688c0 5.445 4.43 9.875 9.875 9.875h.5c5.445 0 9.875-4.43 9.875-9.875v-29.688c0-5.445-4.43-9.875-9.875-9.875z" fill="#3762cc"/><path d="m174.308 121.885c0-25.955-21.277-46.932-47.31-46.381-24.194.512-44.122 19.948-45.254 44.164-.392 8.386 1.455 16.301 4.971 23.222h-.014l35.593 73.363c2.314 4.769 9.097 4.769 11.411 0l35.593-73.363h-.014c3.206-6.308 5.024-13.442 5.024-21.005z" fill="#4671c6"/><ellipse cx="128" cy="121.885" fill="#6bdddd" rx="33.058" ry="33.117"/><path d="m128 221.83c-3.222 0-6.097-1.803-7.505-4.704l-35.593-73.362c-.028-.058-.053-.115-.075-.174-3.713-7.399-5.471-15.698-5.082-24.016 1.184-25.299 21.921-45.535 47.21-46.07 13.095-.249 25.455 4.614 34.808 13.771 9.379 9.183 14.544 21.474 14.544 34.609 0 7.618-1.728 14.92-5.137 21.706-.021.059-.046.116-.074.173l-35.593 73.362c-1.406 2.902-4.281 4.705-7.503 4.705zm-39.399-79.607 35.493 73.157c.745 1.534 2.205 2.45 3.906 2.45s3.162-.916 3.906-2.45l35.494-73.159c.028-.08.062-.159.101-.236 3.189-6.277 4.807-13.04 4.807-20.1 0-12.051-4.739-23.327-13.343-31.751-8.578-8.398-19.902-12.873-31.925-12.63-23.194.49-42.213 19.052-43.299 42.258-.36 7.704 1.285 15.389 4.757 22.223.04.078.074.157.103.238z" fill="#3762cc"/><path d="m131.263 99.966 4.53 9.179c.53 1.074 1.555 1.818 2.74 1.991l10.13 1.472c2.985.434 4.176 4.101 2.017 6.207l-7.33 7.145c-.858.836-1.249 2.04-1.046 3.221l1.73 10.089c.51 2.973-2.61 5.239-5.28 3.836l-9.061-4.763c-1.06-.557-2.326-.557-3.387 0l-9.061 4.763c-2.67 1.403-5.79-.863-5.28-3.836l1.73-10.089c.202-1.18-.189-2.385-1.047-3.221l-7.33-7.145c-2.16-2.105-.968-5.773 2.017-6.207l10.13-1.472c1.185-.172 2.21-.917 2.74-1.991l4.53-9.179c1.337-2.705 5.193-2.705 6.528 0z" fill="#ffea92"/></svg>