<svg id="Layer_1" enable-background="new 0 0 256 256" height="512" viewBox="0 0 256 256" width="512" xmlns="http://www.w3.org/2000/svg"><path d="m162 141h-68c-2.761 0-5-2.239-5-5v-123.333c0-2.761 2.239-5 5-5h68c2.761 0 5 2.239 5 5v123.333c0 2.761-2.239 5-5 5z" fill="#4671c6"/><path d="m162 143h-68c-3.86 0-7-3.14-7-7v-123.333c0-3.86 3.14-7 7-7h68c3.86 0 7 3.14 7 7v123.333c0 3.86-3.14 7-7 7zm-68-133.333c-1.654 0-3 1.346-3 3v123.333c0 1.654 1.346 3 3 3h68c1.654 0 3-1.346 3-3v-123.333c0-1.654-1.346-3-3-3z" fill="#3762cc"/><circle cx="128" cy="42.343" fill="#b9befc" r="23.25"/><path d="m128 60.593c-10.063 0-18.25-8.187-18.25-18.25s8.187-18.25 18.25-18.25 18.25 8.187 18.25 18.25-8.187 18.25-18.25 18.25zm0-32.5c-7.857 0-14.25 6.393-14.25 14.25s6.393 14.25 14.25 14.25 14.25-6.393 14.25-14.25-6.393-14.25-14.25-14.25z" fill="#3762cc"/><circle cx="128" cy="42.343" fill="#4671c6" r="4.887"/><circle cx="128" cy="106.343" fill="#b9befc" r="23.25"/><path d="m128 124.593c-10.063 0-18.25-8.187-18.25-18.25s8.187-18.25 18.25-18.25 18.25 8.187 18.25 18.25-8.187 18.25-18.25 18.25zm0-32.5c-7.857 0-14.25 6.393-14.25 14.25s6.393 14.25 14.25 14.25 14.25-6.393 14.25-14.25-6.393-14.25-14.25-14.25z" fill="#3762cc"/><circle cx="128" cy="106.343" fill="#4671c6" r="4.887"/><path d="m128 67.593c-13.923 0-25.25-11.327-25.25-25.25s11.327-25.25 25.25-25.25 25.25 11.327 25.25 25.25-11.327 25.25-25.25 25.25zm0-46.5c-11.717 0-21.25 9.533-21.25 21.25s9.533 21.25 21.25 21.25 21.25-9.533 21.25-21.25-9.533-21.25-21.25-21.25z" fill="#3762cc"/><path d="m128 131.593c-13.923 0-25.25-11.327-25.25-25.25s11.327-25.25 25.25-25.25 25.25 11.327 25.25 25.25-11.327 25.25-25.25 25.25zm0-46.5c-11.717 0-21.25 9.533-21.25 21.25s9.533 21.25 21.25 21.25 21.25-9.533 21.25-21.25-9.533-21.25-21.25-21.25z" fill="#3762cc"/><path d="m167 161.769c-1.104 0-2-.896-2-2v-74.72c0-1.104.896-2 2-2s2 .896 2 2v74.72c0 1.105-.896 2-2 2z" fill="#3762cc"/><path d="m193.02 71.613c0-14.37-11.65-26.02-26.02-26.02s-26.02 11.65-26.02 26.02c0 .699.036 1.389.09 2.073h-.09c.912 16.258 20.675 34.052 20.675 34.052h5.345 5.345s19.763-17.795 20.675-34.052h-.09c.054-.684.09-1.374.09-2.073z" fill="#6bdddd"/><path d="m172.345 107.739h-5.345-5.345l-1.06 4.891c-.237 1.093.596 2.126 1.714 2.126h4.691 4.691c1.118 0 1.951-1.033 1.714-2.126z" fill="#6bdddd"/><path d="m172.345 109.739h-10.69c-.494 0-.971-.183-1.338-.514-.832-.749-20.386-18.541-21.333-35.427-.011-.192.007-.384.05-.568-.035-.575-.053-1.109-.053-1.617 0-15.45 12.57-28.02 28.02-28.02s28.02 12.57 28.02 28.02c0 .52-.018 1.066-.055 1.657.043.172.062.35.052.529-.948 16.886-20.501 34.678-21.333 35.427-.369.33-.846.513-1.34.513zm-9.903-4h9.115c3.106-2.947 18.299-18.012 19.429-31.637-.047-.187-.065-.379-.05-.573.056-.711.083-1.338.083-1.916 0-13.245-10.775-24.02-24.02-24.02s-24.02 10.775-24.02 24.02c0 .578.027 1.205.083 1.916.017.208 0 .415-.046.614 1.158 13.631 16.322 28.653 19.426 31.596z" fill="#3762cc"/><path d="m171.69 116.755h-9.381c-1.141 0-2.206-.509-2.922-1.397s-.988-2.037-.747-3.152l1.06-4.891c.199-.92 1.013-1.577 1.955-1.577h10.69c.941 0 1.755.657 1.955 1.577l1.06 4.891c.242 1.115-.031 2.264-.747 3.151-.717.889-1.781 1.398-2.923 1.398zm-9.076-4h8.771l-.654-3.017h-7.464z" fill="#3762cc"/><path d="m205.667 248h-157c-4.418 0-8-3.582-8-8v-99h173v99c0 4.418-3.582 8-8 8z" fill="#f9cfcf"/><path d="m213.667 141 22.724 55.143c1.085 2.633-.851 5.524-3.698 5.524h-19.025v-60.667z" fill="#f9a7a7"/><path d="m40.667 141-22.724 55.143c-1.085 2.633.851 5.524 3.698 5.524h19.025v-60.667z" fill="#f9a7a7"/><path d="m133.38 165.996 6.027 12.212c.874 1.771 2.563 2.998 4.518 3.282l13.477 1.958c4.921.715 6.886 6.763 3.325 10.234l-9.752 9.506c-1.414 1.378-2.059 3.364-1.726 5.311l2.302 13.423c.841 4.901-4.304 8.639-8.706 6.325l-12.054-6.337c-1.748-.919-3.836-.919-5.584 0l-12.054 6.337c-4.402 2.314-9.546-1.424-8.706-6.325l2.302-13.423c.334-1.946-.311-3.932-1.726-5.311l-9.752-9.506c-3.561-3.471-1.596-9.519 3.325-10.234l13.477-1.958c1.954-.284 3.644-1.511 4.518-3.282l6.027-12.212c2.202-4.459 8.562-4.459 10.762 0z" fill="#ffea92"/><path d="m67.434 112.408h7.564v28.592h-7.564z" fill="#4671c6"/><path d="m74.998 143h-7.564c-1.104 0-2-.896-2-2v-28.592c0-1.104.896-2 2-2h7.564c1.104 0 2 .896 2 2v28.592c0 1.104-.895 2-2 2zm-5.564-4h3.564v-24.592h-3.564z" fill="#3762cc"/><path d="m71.216 131.192c-15.061 0-27.315-10.745-27.315-23.953 0-1.625 1.317-2.942 2.942-2.942s2.942 1.317 2.942 2.942c0 9.964 9.614 18.07 21.432 18.07s21.432-8.106 21.432-18.07c0-1.625 1.317-2.942 2.942-2.942s2.942 1.317 2.942 2.942c-.002 13.207-12.256 23.953-27.317 23.953z" fill="#a4c9ff"/><path d="m71.216 118.904c-9.822 0-17.784-7.962-17.784-17.784v-24.743c0-9.822 7.962-17.784 17.784-17.784 9.822 0 17.784 7.962 17.784 17.784v24.743c0 9.822-7.962 17.784-17.784 17.784z" fill="#e0ebfc"/><path d="m79.059 96.481c-1.708 0-3.093 1.385-3.093 3.093s1.385 3.093 3.093 3.093h9.87c.044-.51.071-1.025.071-1.546v-4.639h-9.941z" fill="#a4c9ff"/><path d="m89 85.656h-9.941c-1.708 0-3.093 1.385-3.093 3.093s1.385 3.093 3.093 3.093h9.941z" fill="#a4c9ff"/><path d="m75.966 77.924c0 1.708 1.385 3.093 3.093 3.093h9.941v-4.639c0-.522-.027-1.036-.071-1.546h-9.87c-1.708-.001-3.093 1.384-3.093 3.092z" fill="#a4c9ff"/><path d="m63.373 96.481h-9.941v4.639c0 .521.027 1.036.071 1.546h9.87c1.708 0 3.093-1.385 3.093-3.093s-1.385-3.092-3.093-3.092z" fill="#a4c9ff"/><path d="m63.373 85.656h-9.941v6.186h9.941c1.708 0 3.093-1.385 3.093-3.093s-1.385-3.093-3.093-3.093z" fill="#a4c9ff"/><path d="m63.373 74.831h-9.87c-.044.51-.071 1.025-.071 1.546v4.639h9.941c1.708 0 3.093-1.385 3.093-3.093s-1.385-3.092-3.093-3.092z" fill="#a4c9ff"/><g fill="#3762cc"><path d="m71.216 133.192c-16.165 0-29.315-11.643-29.315-25.953 0-2.725 2.217-4.941 4.942-4.941s4.941 2.217 4.941 4.941c0 8.861 8.717 16.07 19.432 16.07s19.432-7.209 19.432-16.07c0-2.725 2.217-4.941 4.942-4.941s4.941 2.217 4.941 4.941c0 14.31-13.151 25.953-29.315 25.953zm-24.373-26.895c-.52 0-.942.422-.942.941 0 12.105 11.356 21.953 25.315 21.953s25.315-9.848 25.315-21.953c0-.519-.422-.941-.941-.941-.52 0-.942.422-.942.941 0 11.066-10.511 20.07-23.432 20.07s-23.432-9.003-23.432-20.07c0-.518-.422-.941-.941-.941z"/><path d="m71.216 120.904c-10.909 0-19.784-8.875-19.784-19.784v-24.743c0-10.909 8.875-19.784 19.784-19.784s19.784 8.875 19.784 19.784v24.743c0 10.909-8.875 19.784-19.784 19.784zm0-60.311c-8.704 0-15.784 7.081-15.784 15.784v24.743c0 8.704 7.081 15.784 15.784 15.784s15.784-7.08 15.784-15.784v-24.743c0-8.703-7.081-15.784-15.784-15.784z"/><path d="m205.667 250h-157c-5.514 0-10-4.486-10-10v-99c0-1.104.896-2 2-2h173c1.104 0 2 .896 2 2v99c0 5.514-4.486 10-10 10zm-163-107v97c0 3.309 2.691 6 6 6h157c3.309 0 6-2.691 6-6v-97z"/><path d="m232.692 203.667h-19.025c-1.104 0-2-.896-2-2v-60.667c0-.955.675-1.776 1.612-1.962.934-.188 1.874.317 2.237 1.2l22.724 55.143c.764 1.855.554 3.957-.562 5.624-1.116 1.666-2.98 2.662-4.986 2.662zm-17.025-4h17.025c.679 0 1.284-.323 1.662-.887.377-.564.446-1.247.187-1.875l-18.875-45.802v48.564z"/><path d="m40.667 203.667h-19.026c-2.006 0-3.87-.995-4.986-2.662s-1.326-3.769-.562-5.624l22.724-55.143c.363-.883 1.305-1.388 2.237-1.2.937.186 1.612 1.007 1.612 1.962v60.667c.001 1.104-.895 2-1.999 2zm-2-52.564-18.875 45.802c-.258.627-.19 1.311.188 1.875.377.564.983.887 1.662.887h17.025z"/><path d="m110.354 230.946c-1.652 0-3.292-.517-4.694-1.536-2.482-1.803-3.702-4.801-3.183-7.824l2.302-13.423c.223-1.298-.208-2.622-1.15-3.541l-9.752-9.506c-2.197-2.141-2.972-5.283-2.024-8.201s3.422-5.004 6.458-5.445l13.477-1.958c1.303-.189 2.429-1.008 3.012-2.188l6.027-12.212c1.357-2.75 4.106-4.459 7.174-4.459s5.816 1.709 7.174 4.459l6.027 12.212c.583 1.181 1.709 1.999 3.012 2.188l13.477 1.958c3.036.441 5.51 2.527 6.458 5.445s.172 6.06-2.024 8.201l-9.752 9.506c-.943.919-1.373 2.243-1.15 3.541l2.302 13.423c.519 3.023-.701 6.021-3.183 7.824-2.481 1.803-5.708 2.037-8.425.608l-12.054-6.337c-1.165-.612-2.557-.613-3.723 0l-12.054 6.337c-1.182.621-2.461.928-3.732.928zm17.646-66.294c-1.557 0-2.898.833-3.587 2.23l-6.027 12.212c-1.166 2.361-3.417 3.997-6.023 4.376l-13.477 1.958c-1.541.224-2.748 1.242-3.229 2.723s-.103 3.014 1.012 4.101l9.752 9.506c1.886 1.838 2.746 4.486 2.301 7.082l-2.302 13.422c-.263 1.535.332 2.997 1.592 3.913 1.26.915 2.834 1.028 4.212.304l12.054-6.337c2.331-1.226 5.114-1.225 7.445 0l12.054 6.338c1.378.724 2.953.611 4.212-.304 1.26-.916 1.855-2.378 1.592-3.913l-2.302-13.423c-.445-2.595.415-5.243 2.301-7.081l9.752-9.506c1.115-1.087 1.493-2.62 1.012-4.101s-1.688-2.499-3.229-2.723l-13.477-1.958c-2.606-.379-4.858-2.015-6.023-4.376l-6.027-12.212c-.69-1.398-2.031-2.231-3.588-2.231z"/></g><path d="m167 141h41.917l-19.118-44.962c-.69-1.623-2.991-1.623-3.681 0z" fill="#a4c9ff"/><path d="m171.917 129.435 11.566 11.565h13.536l-21.063-21.063z" fill="#ffea92"/><path d="m179.674 111.192 28.824 28.824-10.013-23.55-14.772-14.772z" fill="#ffea92"/><path d="m208.917 143h-41.917c-.671 0-1.298-.337-1.668-.896-.371-.56-.435-1.269-.172-1.886l19.118-44.961c.629-1.479 2.074-2.435 3.681-2.435 1.607 0 3.052.956 3.681 2.436l19.117 44.961c.263.618.198 1.326-.172 1.886-.371.558-.997.895-1.668.895zm-38.893-4h35.869l-17.934-42.179z" fill="#3762cc"/></svg>