<svg id="Layer_1" enable-background="new 0 0 256 256" height="512" viewBox="0 0 256 256" width="512" xmlns="http://www.w3.org/2000/svg"><path d="m160.173 155.091h-146.798v-114.864c0-3.314 2.686-6 6-6h134.798c3.314 0 6 2.686 6 6z" fill="#4671c6"/><path d="m216.427 63.663 12.007 32.275 11.11 6.189c1.901 1.059 3.08 3.065 3.08 5.242v47.722h-82.452v-96.639h48.756c3.344 0 6.334 2.078 7.499 5.211z" fill="#a4c9ff"/><path d="m172.826 69.076h32.324c1.782 0 3.349 1.179 3.843 2.891l7.693 26.667c.738 2.557-1.182 5.109-3.843 5.109h-40.017c-2.209 0-4-1.791-4-4v-26.667c0-2.209 1.791-4 4-4z" fill="#e0ebfc"/><path d="m124.041 135.586h-74.533c-3.308 0-5.989-2.681-5.989-5.989v-69.875c0-3.308 2.681-5.989 5.989-5.989h74.533c3.308 0 5.989 2.681 5.989 5.989v69.875c0 3.307-2.681 5.989-5.989 5.989z" fill="#a4c9ff"/><path d="m71.801 127.861h-18.301c-1.378 0-2.496-1.117-2.496-2.496v-7.653c0-1.378 1.117-2.496 2.496-2.496h18.301c1.378 0 2.496 1.117 2.496 2.496v7.653c-.001 1.379-1.118 2.496-2.496 2.496z" fill="#e0ebfc"/><path d="m121.154 122.026h-10.601c-1.104 0-1.999-.895-1.999-1.999 0-1.104.895-1.999 1.999-1.999h10.601c1.104 0 1.999.895 1.999 1.999 0 1.104-.895 1.999-1.999 1.999z" fill="#e0ebfc"/><path d="m121.154 127.335h-10.601c-1.104 0-1.999-.895-1.999-1.999 0-1.104.895-1.999 1.999-1.999h10.601c1.104 0 1.999.895 1.999 1.999 0 1.104-.895 1.999-1.999 1.999z" fill="#e0ebfc"/><path d="m90.21 62.512 4.77 9.665c.558 1.131 1.637 1.915 2.885 2.096l10.666 1.55c3.143.457 4.397 4.318 2.123 6.535l-7.718 7.523c-.903.88-1.315 2.148-1.102 3.391l1.822 10.623c.537 3.13-2.748 5.517-5.559 4.039l-9.54-5.015c-1.116-.587-2.45-.587-3.566 0l-9.54 5.015c-2.811 1.478-6.096-.909-5.559-4.039l1.822-10.623c.213-1.243-.199-2.511-1.102-3.391l-7.718-7.523c-2.274-2.217-1.019-6.078 2.123-6.535l10.666-1.55c1.248-.181 2.327-.965 2.885-2.096l4.77-9.665c1.406-2.848 5.466-2.848 6.872 0z" fill="#ffea92"/><path d="m160.173 157.091h-146.798c-1.104 0-2-.896-2-2v-114.863c0-4.411 3.589-8 8-8h134.798c4.411 0 8 3.589 8 8v114.863c0 1.104-.895 2-2 2zm-144.798-4h142.798v-112.863c0-2.206-1.794-4-4-4h-134.798c-2.206 0-4 1.794-4 4z" fill="#3762cc"/><path d="m242.625 157.091h-82.452c-1.104 0-2-.896-2-2v-96.639c0-1.104.896-2 2-2h48.756c4.157 0 7.923 2.617 9.373 6.514l11.75 31.584 10.466 5.83c2.533 1.411 4.107 4.09 4.107 6.989v47.722c0 1.104-.896 2-2 2zm-80.452-4h78.452v-45.722c0-1.45-.787-2.789-2.054-3.495l-11.11-6.188c-.416-.231-.735-.604-.901-1.05l-12.007-32.276c-.87-2.338-3.129-3.908-5.624-3.908h-46.756z" fill="#3762cc"/><path d="m245.31 119.742h-2.466-.219-16.406c-2.209 0-4 1.791-4 4v11c0 2.209 1.791 4 4 4h16.406.219 2.466c1.486 0 2.69-1.204 2.69-2.69v-13.62c0-1.485-1.204-2.69-2.69-2.69z" fill="#ffea92"/><path d="m245.31 140.742h-19.091c-3.309 0-6-2.691-6-6v-11c0-3.309 2.691-6 6-6h19.091c2.586 0 4.69 2.104 4.69 4.69v13.62c0 2.587-2.104 4.69-4.69 4.69zm-19.091-19c-1.103 0-2 .897-2 2v11c0 1.103.897 2 2 2h19.091c.38 0 .69-.31.69-.689v-13.62c0-.381-.31-.69-.69-.69h-19.091z" fill="#3762cc"/><path d="m242 181.424h-228c-3.314 0-6-2.686-6-6v-14.333c0-3.314 2.686-6 6-6h228c3.314 0 6 2.686 6 6v14.333c0 3.314-2.686 6-6 6z" fill="#6bdddd"/><path d="m242 183.424h-228c-4.411 0-8-3.589-8-8v-14.333c0-4.411 3.589-8 8-8h228c4.411 0 8 3.589 8 8v14.333c0 4.411-3.589 8-8 8zm-228-26.333c-2.206 0-4 1.794-4 4v14.333c0 2.206 1.794 4 4 4h228c2.206 0 4-1.794 4-4v-14.333c0-2.206-1.794-4-4-4z" fill="#3762cc"/><circle cx="61.865" cy="191.758" fill="#4671c6" r="29.133"/><path d="m61.865 207.424c-8.639 0-15.667-7.028-15.667-15.667s7.028-15.666 15.667-15.666 15.667 7.027 15.667 15.666-7.029 15.667-15.667 15.667z" fill="#f9cfcf"/><circle cx="201.865" cy="191.758" fill="#4671c6" r="29.133"/><path d="m201.865 207.424c-8.639 0-15.667-7.028-15.667-15.667s7.028-15.666 15.667-15.666 15.667 7.027 15.667 15.666-7.029 15.667-15.667 15.667z" fill="#f9cfcf"/><g fill="#3762cc"><path d="m212.843 105.742h-40.017c-3.309 0-6-2.691-6-6v-26.666c0-3.309 2.691-6 6-6h32.324c2.657 0 5.028 1.783 5.765 4.336l7.693 26.667c.527 1.829.174 3.75-.97 5.271s-2.892 2.392-4.795 2.392zm-40.017-34.666c-1.103 0-2 .897-2 2v26.666c0 1.103.897 2 2 2h40.017c.634 0 1.217-.291 1.598-.798s.5-1.146.323-1.756l-7.692-26.667c-.245-.851-1.036-1.445-1.921-1.445z"/><path d="m61.865 222.891c-17.167 0-31.133-13.966-31.133-31.133s13.966-31.134 31.133-31.134 31.133 13.967 31.133 31.134-13.966 31.133-31.133 31.133zm0-58.267c-14.961 0-27.133 12.172-27.133 27.134 0 14.961 12.172 27.133 27.133 27.133s27.133-12.172 27.133-27.133c0-14.962-12.172-27.134-27.133-27.134z"/><path d="m61.865 209.424c-9.742 0-17.667-7.926-17.667-17.667s7.925-17.666 17.667-17.666 17.667 7.925 17.667 17.666-7.926 17.667-17.667 17.667zm0-31.333c-7.536 0-13.667 6.131-13.667 13.666 0 7.536 6.131 13.667 13.667 13.667s13.667-6.131 13.667-13.667c0-7.535-6.131-13.666-13.667-13.666z"/><path d="m201.865 222.891c-17.167 0-31.133-13.966-31.133-31.133s13.966-31.134 31.133-31.134 31.133 13.967 31.133 31.134-13.966 31.133-31.133 31.133zm0-58.267c-14.961 0-27.133 12.172-27.133 27.134 0 14.961 12.172 27.133 27.133 27.133s27.133-12.172 27.133-27.133c0-14.962-12.172-27.134-27.133-27.134z"/><path d="m201.865 209.424c-9.742 0-17.667-7.926-17.667-17.667s7.925-17.666 17.667-17.666 17.667 7.925 17.667 17.666-7.926 17.667-17.667 17.667zm0-31.333c-7.536 0-13.667 6.131-13.667 13.666 0 7.536 6.131 13.667 13.667 13.667s13.667-6.131 13.667-13.667c0-7.535-6.131-13.666-13.667-13.666z"/></g></svg>