<svg id="Layer_1" enable-background="new 0 0 256 256" height="512" viewBox="0 0 256 256" width="512" xmlns="http://www.w3.org/2000/svg"><path d="m36.641 37.084h-22.661c-2.58 0-4.671-2.091-4.671-4.671v-10.336c0-2.58 2.091-4.671 4.671-4.671h22.661c2.58 0 4.671 2.091 4.671 4.671v10.336c0 2.58-2.092 4.671-4.671 4.671z" fill="#f9cfcf"/><path d="m46.511 19.282c-2.549-.005-4.677 1.878-5.199 4.394v8.738c0 2.58-2.091 4.671-4.671 4.671h-22.661c-2.58 0-4.671-2.091-4.671-4.671v6.499 6.733c0 5.849 4.742 10.591 10.591 10.591h11.002c2.361 0 4.538-.778 6.298-2.085l.001.005.2-.155c.041-.032.082-.063.123-.096l.288-.224c.434-.338.843-.706 1.225-1.102l7.266-7.551c1.567-1.628 2.449-3.849 2.449-6.166v-1.53-15.684c-.002-1.302-1.004-2.365-2.241-2.367z" fill="#f9cfcf"/><path d="m140.716 85.385v3.31c.075-.002.148-.011.223-.011 4.098 0 7.662 2.266 9.487 5.602v-10.204c-.811.605-1.807.976-2.896.976h-6.822c.001.109.008.217.008.327z" fill="#3762cc"/><path d="m69.799 88.683c.075 0 .148.01.223.011v-3.31c0-1.887.155-3.737.445-5.543-1.851-.814-3.548-1.89-5.012-3.204l-.155.33c-1.033-.774-1.957-1.628-2.801-2.539v17.09c1.922-1.754 4.481-2.835 7.3-2.835z" fill="#3762cc"/><path d="m162.037 182.042h1.572l-20.002-31.221c.969 2.212 1.516 4.652 1.516 7.222v9.043 2.568 4.756 12.646 9.764 12.026 4.708l14.914 19.734v-49.246c0-1.105.895-2 2-2z" fill="#e0ebfc"/><path d="m160.037 235.287c-.615 0-1.211-.284-1.596-.794l-14.914-19.734c-.262-.348-.404-.771-.404-1.206v-55.51c0-2.219-.454-4.378-1.348-6.419-.419-.956-.032-2.074.888-2.566.921-.493 2.065-.194 2.628.684l20.002 31.22c.395.616.421 1.397.071 2.039-.351.641-1.024 1.04-1.755 1.04h-1.575l.002 49.246c0 .859-.549 1.623-1.364 1.896-.209.07-.423.104-.635.104zm-12.914-22.405 10.914 14.441v-43.282c0-1.556.893-2.907 2.192-3.568l-13.106-20.458z" fill="#3762cc"/><path d="m84.04 140.017h42.659l-21.33 47.038z" fill="#e0ebfc"/><path d="m127.096 140.017h-5.729c-.012-.001-.024-.003-.037-.003l-.002.003h-37.685c-9.956 0-18.027 8.071-18.027 18.027v9.043 2.568 4.756 12.646 9.764 12.026 24.442h79.507v-24.442-12.026-9.764-12.646-4.756-2.568-9.043c0-9.956-8.071-18.027-18.027-18.027zm-21.727 47.038-21.329-47.038h42.658z" fill="#4671c6"/><path d="m145.123 235.287h-79.507c-1.104 0-2-.896-2-2v-75.244c0-11.043 8.984-20.027 20.026-20.027h37.589c.062-.003.123-.003.195 0h5.669c11.043 0 20.027 8.984 20.027 20.027v75.244c.001 1.105-.895 2-1.999 2zm-77.507-4h75.506v-73.244c0-8.837-7.189-16.027-16.027-16.027h-5.729c-.013 0-.027 0-.039 0h-37.684c-8.837 0-16.026 7.189-16.026 16.027v73.244z" fill="#3762cc"/><path d="m105.369 189.055c-.785 0-1.498-.459-1.821-1.174l-21.329-47.038c-.281-.619-.228-1.338.14-1.91s1.001-.917 1.681-.917h42.659c.68 0 1.313.345 1.681.917s.421 1.291.14 1.91l-21.33 47.038c-.324.715-1.036 1.174-1.821 1.174zm-18.226-47.038 18.226 40.195 18.227-40.195z" fill="#3762cc"/><path d="m36.641 39.084h-22.662c-3.678 0-6.67-2.992-6.67-6.67v-10.336c0-3.678 2.992-6.671 6.67-6.671h22.662c3.678 0 6.67 2.993 6.67 6.671v10.336c.001 3.678-2.992 6.67-6.67 6.67zm-22.662-19.677c-1.473 0-2.67 1.198-2.67 2.671v10.336c0 1.473 1.198 2.67 2.67 2.67h22.662c1.473 0 2.67-1.198 2.67-2.67v-10.336c0-1.473-1.198-2.671-2.67-2.671z" fill="#3762cc"/><path d="m105.307 147.317 9.923-7.3 6.117-4.5h.053v-2.284c-4.811 2.432-10.258 3.804-16.03 3.804-5.776 0-11.226-1.374-16.039-3.809v2.289l6.116 4.5z" fill="#f9cfcf"/><path d="m140.939 88.683c-.075 0-.148.01-.223.011v-3.31c0-19.346-15.825-35.028-35.347-35.028-19.521 0-35.347 15.683-35.347 35.028v3.31c-.075-.002-.148-.011-.223-.011-5.956 0-10.784 4.785-10.784 10.687s4.828 10.687 10.784 10.687c.391 0 .777-.023 1.157-.063 3.648 15.496 17.665 27.044 34.413 27.044 16.748 0 30.766-11.547 34.413-27.044.38.04.766.063 1.157.063 5.956 0 10.784-4.785 10.784-10.687s-4.828-10.687-10.784-10.687z" fill="#f9cfcf"/><path d="m86.16 105.95c-2.353 0-4.267-1.914-4.267-4.267v-7.111c0-2.353 1.914-4.267 4.267-4.267 2.352 0 4.267 1.914 4.267 4.267v7.111c0 2.353-1.915 4.267-4.267 4.267z" fill="#3762cc"/><path d="m124.412 105.95c-2.353 0-4.267-1.914-4.267-4.267v-7.111c0-2.353 1.914-4.267 4.267-4.267 2.352 0 4.267 1.914 4.267 4.267v7.111c-.001 2.353-1.915 4.267-4.267 4.267z" fill="#3762cc"/><path d="m105.369 139.037c-16.889 0-31.439-11.015-35.946-26.986-6.875-.199-12.407-5.811-12.407-12.681 0-6.397 4.796-11.704 11.007-12.564v-1.42c0-20.417 16.753-37.028 37.347-37.028s37.347 16.611 37.347 37.028v1.42c6.211.861 11.007 6.167 11.007 12.564 0 6.871-5.532 12.483-12.408 12.681-4.507 15.971-19.058 26.986-35.947 26.986zm-34.411-31.044c.918 0 1.731.631 1.945 1.542 3.534 15.015 16.885 25.501 32.466 25.501s28.932-10.487 32.466-25.501c.231-.98 1.155-1.638 2.156-1.531.312.033.627.052.948.052 4.843 0 8.784-3.897 8.784-8.687 0-4.78-3.924-8.67-8.753-8.687-.103.007-.177.012-.254.011-.523 0-1.026-.205-1.4-.572-.383-.376-.6-.891-.6-1.428v-3.31c0-18.212-14.959-33.028-33.347-33.028s-33.347 14.818-33.347 33.03v3.31c0 .537-.216 1.052-.6 1.428-.384.375-.905.579-1.439.571-.069-.001-.137-.005-.206-.01 0 0 0 0-.001 0-4.822 0-8.761 3.896-8.761 8.686s3.94 8.687 8.784 8.687c.32 0 .636-.019.947-.052.071-.008.142-.012.212-.012z" fill="#3762cc"/><path d="m106.305 122.873c1.534 0 3.073-.322 4.402-1.087.961-.553 1.817-1.288 2.511-2.182.935-1.204 1.524-2.624 1.716-4.114.074-.57-.38-1.076-.955-1.076h-17.218c-.575 0-1.029.506-.955 1.076.192 1.489.781 2.91 1.716 4.114.693.893 1.549 1.629 2.511 2.182 1.33.765 2.868 1.087 4.402 1.087z" fill="#f9a7a7"/><path d="m105.307 147.317-6.039 9.346.919 6.036h5.12 5.12l.92-6.036z" fill="#f9a7a7"/><path d="m147.53 85.058h-7.784c-2.687 0-4.865-2.178-4.865-4.865v-34.706c0-2.687 2.178-4.865 4.865-4.865 6.986 0 12.65 5.663 12.65 12.65v26.921c-.001 2.687-2.179 4.865-4.866 4.865z" fill="#4671c6"/><path d="m105.369 187.055 6.941-15.307-1.882-9.049h-5.059-.124-5.058l-1.843 8.862z" fill="#f9a7a7"/><path d="m110.428 164.699h-10.241c-.988 0-1.828-.722-1.977-1.699l-.919-6.036c-.074-.483.032-.977.297-1.387l6.04-9.346c.368-.57 1.001-.915 1.68-.915s1.312.344 1.68.915l6.04 9.346c.265.41.371.904.297 1.387l-.92 6.036c-.149.977-.989 1.699-1.977 1.699zm-8.523-4h6.804l.546-3.587-3.949-6.11-3.948 6.11z" fill="#3762cc"/><path d="m105.369 189.055c-.785 0-1.498-.459-1.821-1.174l-7.025-15.494c-.175-.386-.223-.818-.137-1.233l1.843-8.862c.193-.928 1.01-1.593 1.958-1.593h10.241c.948 0 1.765.665 1.958 1.593l1.882 9.05c.086.415.039.847-.137 1.233l-6.941 15.306c-.323.715-1.036 1.174-1.821 1.174zm-4.934-17.725 4.935 10.882 4.85-10.695-1.418-6.818h-6.987z" fill="#3762cc"/><path d="m147.53 87.058h-7.785c-3.786 0-6.865-3.08-6.865-6.865v-34.706c0-3.786 3.08-6.865 6.865-6.865 8.078 0 14.65 6.572 14.65 14.65v26.921c0 3.786-3.08 6.865-6.865 6.865zm-7.785-44.436c-1.58 0-2.865 1.285-2.865 2.865v34.706c0 1.58 1.285 2.865 2.865 2.865h7.785c1.58 0 2.865-1.285 2.865-2.865v-26.922c0-5.872-4.777-10.649-10.65-10.649z" fill="#3762cc"/><path d="m125.934 39.567h-39.668c-4.827 0-9.642-.73-14.193-2.336-4.138-1.46-8.463-3.735-10.929-7.225-.659-.934-2.318-.677-2.607.386-2.576 9.47-7.984 35.53 6.764 46.576l.155-.33c3.356 3.011 7.88 4.861 12.863 4.861h37.178c10.705 0 19.384-8.236 19.384-18.397v-15.044c-.001-4.689-4.006-8.491-8.947-8.491z" fill="#4671c6"/><path d="m115.497 83.499h-37.179c-4.854 0-9.497-1.604-13.211-4.54-.36-.035-.708-.168-1.005-.39-15.552-11.649-10.422-37.939-7.495-48.702.335-1.232 1.371-2.144 2.704-2.379 1.354-.239 2.713.297 3.467 1.365 1.859 2.632 5.21 4.817 9.96 6.493 4.179 1.475 8.73 2.222 13.528 2.222h39.667c6.036 0 10.946 4.706 10.946 10.491v15.043c.001 11.246-9.591 20.397-21.382 20.397zm-49.904-8.856c.439.03.862.206 1.198.506 3.126 2.805 7.22 4.349 11.527 4.349h37.179c9.585 0 17.383-7.356 17.383-16.397v-15.043c0-3.579-3.116-6.491-6.946-6.491h-39.668c-5.252 0-10.251-.824-14.859-2.45-5.056-1.784-8.829-4.166-11.234-7.09-2.236 8.702-6.818 32.198 5.42 42.616z" fill="#3762cc"/><path d="m106.305 124.373h-1.871c-1.906 0-3.687-.445-5.15-1.287-1.149-.661-2.141-1.523-2.948-2.563-1.093-1.407-1.791-3.082-2.019-4.841-.09-.696.125-1.4.591-1.929.468-.533 1.144-.839 1.852-.839h17.217c.708 0 1.383.305 1.851.838.466.529.682 1.232.592 1.929-.228 1.76-.925 3.434-2.019 4.843-.807 1.039-1.798 1.901-2.948 2.562-1.462.842-3.243 1.287-5.148 1.287zm-8.904-8.458c.224 1.002.668 1.95 1.305 2.77.566.729 1.264 1.335 2.074 1.801 1.009.581 2.273.887 3.655.887h1.871c1.381 0 2.646-.307 3.655-.887.81-.466 1.507-1.072 2.073-1.801.637-.82 1.082-1.768 1.305-2.77z" fill="#3762cc"/><path d="m105.307 147.317 4.96 9.346c.452.851 1.618.981 2.246.25l13.862-16.131c.391-.455.44-1.112.121-1.62l-1.525-2.427c-.477-.759-1.31-1.219-2.206-1.219h-1.419z" fill="#e0ebfc"/><path d="m111.477 159.39c-.125 0-.249-.007-.374-.021-1.107-.124-2.08-.785-2.602-1.769l-4.96-9.346c-.465-.876-.218-1.96.582-2.548l16.04-11.8c.343-.253.759-.389 1.185-.389h1.418c1.594 0 3.052.806 3.9 2.155l1.525 2.425c.791 1.259.671 2.862-.297 3.989l-13.862 16.131c-.645.749-1.579 1.173-2.555 1.173zm-3.594-11.485 3.717 7.003 12.956-15.076-1.277-2.031c-.112-.178-.304-.284-.513-.284h-.762z" fill="#3762cc"/><path d="m105.369 147.317-4.96 9.346c-.452.851-1.618.981-2.246.25l-13.863-16.131c-.391-.455-.44-1.112-.121-1.62l1.525-2.427c.477-.759 1.31-1.219 2.206-1.219h1.419z" fill="#e0ebfc"/><path d="m99.199 159.39c-.976 0-1.91-.423-2.554-1.173l-13.862-16.13c-.968-1.127-1.087-2.729-.297-3.988l1.525-2.427c.849-1.349 2.306-2.155 3.9-2.155h1.418c.426 0 .842.136 1.185.389l16.039 11.8c.799.588 1.046 1.672.582 2.548l-4.96 9.346c-.522.984-1.495 1.645-2.602 1.769-.125.014-.25.021-.374.021zm-13.078-19.558 12.955 15.076 3.717-7.003-14.119-10.388h-.762c-.21 0-.402.106-.513.284z" fill="#3762cc"/><path d="m42.737 97.051v-38.815c0-1.105-.895-2-2-2h-30.406c-1.105 0-2 .895-2 2v39.891 9.54 1.738c0 4.692 1.65 9.235 4.661 12.834l52.364 62.587.26-.511v-9.906-4.756-2.568-9.043c0-7.973 5.181-14.724 12.356-17.103l-34.551-41.981c-.442-.537-.684-1.211-.684-1.907z" fill="#e0ebfc"/><path d="m65.355 186.826c-.588 0-1.151-.26-1.534-.717l-52.364-62.587c-3.306-3.951-5.126-8.964-5.126-14.117v-51.169c0-2.206 1.794-4 4-4h30.406c2.206 0 4 1.794 4 4v38.815c0 .231.081.457.228.635l34.551 41.984c.419.509.56 1.192.377 1.826s-.666 1.136-1.292 1.344c-6.57 2.178-10.985 8.288-10.985 15.204v26.271c0 .315-.075.626-.218.907l-.26.511c-.305.599-.89 1.004-1.557 1.08-.075.009-.15.013-.226.013zm-55.023-128.59v51.169c0 4.216 1.49 8.317 4.194 11.55l49.09 58.675v-21.586c0-7.684 4.358-14.571 11.094-17.917l-32.834-39.897c-.734-.892-1.139-2.021-1.139-3.177v-38.817z" fill="#3762cc"/><path d="m193.233 233.235-1.053 1.209c-2.02 2.32-4.946 3.652-8.023 3.652h-13.841c-2.16 0-4.268-.657-6.045-1.885l-4.234-2.924v-16.941-32.304c0-1.105.895-2 2-2h30.406c1.105 0 2 .895 2 2v32.304 13.658c0 .719-.158 1.43-.462 2.081-.195.416-.446.803-.748 1.15z" fill="#e0ebfc"/><path d="m184.157 240.096h-13.841c-2.577 0-5.061-.774-7.182-2.238l-4.235-2.925c-.541-.373-.863-.988-.863-1.646v-49.246c0-2.206 1.794-4 4-4h30.406c2.206 0 4 1.794 4 4v45.962c0 1.005-.225 2.017-.65 2.927-.272.584-.626 1.128-1.051 1.617l-1.053 1.209c-2.401 2.759-5.875 4.34-9.531 4.34zm-22.12-7.858 3.371 2.328c1.45 1 3.147 1.53 4.909 1.53h13.841c2.499 0 4.874-1.081 6.515-2.965l1.052-1.208c.18-.207.33-.437.444-.683.18-.384.274-.812.274-1.235v-45.962h-30.406zm31.196.997h.01z" fill="#3762cc"/><path d="m30.901 58.236h-11.002c-6.942 0-12.59-5.648-12.59-12.591v-13.231c0-1.104.896-2 2-2s2 .896 2 2c0 1.473 1.198 2.67 2.67 2.67h22.662c1.473 0 2.67-1.198 2.67-2.67v-8.738c0-.137.014-.272.042-.406.721-3.472 3.725-5.987 7.147-5.987h.015c2.335.004 4.235 1.964 4.235 4.367v17.213c0 2.855-1.068 5.537-3.007 7.553l-7.266 7.551c-.449.466-.932.901-1.438 1.294l-.61.475c-.05.039-.102.075-.154.109-2.161 1.565-4.707 2.391-7.374 2.391zm-19.592-19.71v7.12c0 4.737 3.854 8.591 8.59 8.591h11.001c1.851 0 3.617-.584 5.106-1.69.023-.018.047-.035.072-.051l.094-.073c.009-.007.113-.088.123-.095l.288-.224c.356-.277.696-.583 1.012-.911l7.265-7.55c1.201-1.248 1.89-2.99 1.89-4.779v-17.215c0-.224-.144-.367-.243-.367-.001-.001-.004 0-.007 0-1.479 0-2.792 1.091-3.188 2.621v8.511c0 3.678-2.992 6.67-6.67 6.67h-22.663c-.948 0-1.852-.199-2.67-.558z" fill="#3762cc"/><path d="m177.629 177.389v-22.573c0-2.569 2.083-4.652 4.652-4.652h6.337 1.185c3.091 0 5.596-2.385 5.59-5.324-.003-1.238-1.065-2.239-2.367-2.239h-15.683-1.53c-2.318 0-4.538.882-6.166 2.449l-7.551 7.266c-.396.381-.765.791-1.102 1.225l-.224.288c-.033.04-.064.082-.096.123l-.155.2.005.001c-1.307 1.76-2.085 3.937-2.085 6.298v11.002c0 5.849 4.742 10.591 10.591 10.591h6.733 6.519c-2.57-.002-4.653-2.085-4.653-4.655z" fill="#f9cfcf"/><path d="m192.577 184.042h-10.295c-3.668 0-6.652-2.984-6.652-6.652v-22.573c0-3.668 2.984-6.652 6.652-6.652h10.295c3.668 0 6.652 2.984 6.652 6.652v22.573c.001 3.667-2.983 6.652-6.652 6.652zm-10.295-31.878c-1.462 0-2.652 1.19-2.652 2.652v22.573c0 1.462 1.19 2.652 2.652 2.652h10.295c1.463 0 2.653-1.19 2.653-2.652v-22.573c0-1.462-1.19-2.652-2.652-2.652zm16.947 2.652h.01z" fill="#3762cc"/><path d="m182.282 184.042h-13.252c-6.942 0-12.59-5.648-12.59-12.59v-11.002c0-2.667.826-5.211 2.39-7.369.035-.054.072-.107.111-.159l.475-.61c.396-.51.832-.993 1.295-1.438l7.55-7.265c2.016-1.94 4.698-3.008 7.553-3.008h17.213c2.403 0 4.363 1.9 4.367 4.235.004 1.906-.749 3.711-2.119 5.084-1.444 1.447-3.387 2.244-5.471 2.244h-7.522c-1.462 0-2.652 1.19-2.652 2.652v22.573c0 1.462 1.19 2.652 2.652 2.652 1.104 0 2 .896 2 2s-.896 2.001-2 2.001zm-20.097-28.776c-.018.026-.036.052-.055.078-1.106 1.488-1.69 3.254-1.69 5.105v11.001c0 4.737 3.854 8.59 8.59 8.59h7.152c-.355-.813-.552-1.71-.552-2.652v-22.573c0-3.668 2.984-6.652 6.652-6.652h7.522c1.014 0 1.952-.38 2.64-1.07.614-.615.951-1.415.95-2.25 0-.099-.144-.243-.367-.243h-17.213c-1.79 0-3.532.689-4.78 1.89l-7.55 7.265c-.326.313-.632.654-.911 1.012l-.223.287-.03-.021c-.015.03-.03.06-.046.088l.015.012z" fill="#3762cc"/><path d="m199.535 132.477h-26.305c-2.861 0-5.18-2.319-5.18-5.18v-21.125c0-2.861 2.319-5.18 5.18-5.18h26.305z" fill="#f9a7a7"/><path d="m199.535 100.991v15.743 15.743l18.22 13.005v-28.748-28.748z" fill="#a4c9ff"/><path d="m224.574 148.229h-4.864c-1.079 0-1.955-.875-1.955-1.955v-58.951c0-1.08.875-1.955 1.955-1.955h4.864c1.08 0 1.955.875 1.955 1.955v58.951c-.001 1.08-.876 1.955-1.955 1.955z" fill="#e0ebfc"/><path d="m168.049 126.579v-19.69c0-.043.005-.084.006-.126h-3.387c-2.661 0-4.817 2.157-4.817 4.817v10.437c0 2.661 2.157 4.817 4.817 4.817h3.394c-.004-.085-.013-.169-.013-.255z" fill="#a4c9ff"/><path d="m249.518 119.777h-14.103c-1.657 0-3-1.343-3-3s1.343-3 3-3h14.103c1.657 0 3 1.343 3 3s-1.343 3-3 3z" fill="#ffea92"/><path d="m245.975 149.692c-.906.079-1.837-.253-2.492-.98l-11.086-12.301c-1.109-1.231-1.011-3.128.22-4.237s3.127-1.011 4.237.22l11.086 12.301c1.109 1.231 1.011 3.128-.22 4.237-.504.453-1.118.705-1.745.76z" fill="#ffea92"/><path d="m234.361 101.923c-.627-.055-1.241-.306-1.745-.76-1.231-1.109-1.329-3.006-.22-4.237l11.086-12.301c1.11-1.23 3.006-1.33 4.237-.22 1.231 1.109 1.329 3.006.22 4.237l-11.086 12.301c-.655.727-1.586 1.059-2.492.98z" fill="#ffea92"/><path d="m177.625 132.477v27.059c0 2.209 1.791 4 4 4h4.334c2.209 0 4-1.791 4-4v-27.059z" fill="#4671c6"/><g fill="#3762cc"><path d="m199.535 134.477h-26.305c-3.959 0-7.18-3.221-7.18-7.18v-21.125c0-3.959 3.221-7.181 7.18-7.181h26.305c1.104 0 2 .896 2 2v31.486c0 1.104-.896 2-2 2zm-26.306-31.486c-1.753 0-3.18 1.427-3.18 3.181v21.125c0 1.753 1.427 3.18 3.18 3.18h24.305v-27.486z"/><path d="m217.755 147.482c-.409 0-.816-.125-1.162-.372l-18.22-13.005c-.526-.375-.838-.982-.838-1.628v-31.485c0-.646.312-1.252.838-1.628l18.22-13.005c.61-.435 1.412-.493 2.078-.15s1.084 1.029 1.084 1.778v57.496c0 .749-.418 1.436-1.084 1.778-.289.148-.603.221-.916.221zm-16.22-16.035 14.22 10.15v-49.726l-14.22 10.15z"/><path d="m224.574 150.229h-4.864c-2.181 0-3.955-1.774-3.955-3.955v-58.951c0-2.181 1.774-3.955 3.955-3.955h4.864c2.181 0 3.955 1.774 3.955 3.955v58.951c-.001 2.181-1.775 3.955-3.955 3.955zm-.046-62.906-4.819.045.045 58.906 4.773-.045v-58.906zm.046 58.906c-.001 0-.001 0 0 0z"/><path d="m168.062 128.835h-3.394c-3.759 0-6.817-3.058-6.817-6.817v-10.438c0-3.759 3.058-6.817 6.817-6.817h3.387c.539 0 1.054.217 1.43.602s.582.906.569 1.444c-.001.032-.005.121-.008.152l.002 19.602c.002.033.011.19.011.192.021.544-.179 1.073-.556 1.466-.376.392-.897.614-1.441.614zm1.987-2.256h.01zm-5.381-17.816c-1.554 0-2.817 1.264-2.817 2.817v10.438c0 1.554 1.264 2.817 2.817 2.817h1.381v-16.072z"/><path d="m185.959 165.536h-4.334c-3.309 0-6-2.691-6-6v-27.059c0-1.104.896-2 2-2h12.334c1.104 0 2 .896 2 2v27.059c0 3.308-2.691 6-6 6zm-6.334-31.059v25.059c0 1.103.897 2 2 2h4.334c1.103 0 2-.897 2-2v-25.059z"/></g><path d="m177.629 154.816v22.573c0 2.569 2.083 4.652 4.652 4.652h10.296c2.569 0 4.652-2.083 4.652-4.652v-22.573c0-2.569-2.083-4.652-4.652-4.652h-10.296c-2.569 0-4.652 2.083-4.652 4.652z" fill="#f9cfcf"/><path d="m192.577 184.042h-10.295c-3.668 0-6.652-2.984-6.652-6.652v-22.573c0-3.668 2.984-6.652 6.652-6.652h10.295c3.668 0 6.652 2.984 6.652 6.652v22.573c.001 3.667-2.983 6.652-6.652 6.652zm-10.295-31.878c-1.462 0-2.652 1.19-2.652 2.652v22.573c0 1.462 1.19 2.652 2.652 2.652h10.295c1.463 0 2.653-1.19 2.653-2.652v-22.573c0-1.462-1.19-2.652-2.652-2.652zm16.947 2.652h.01z" fill="#3762cc"/></svg>