<svg id="Layer_1" enable-background="new 0 0 256 256" height="512" viewBox="0 0 256 256" width="512" xmlns="http://www.w3.org/2000/svg"><path d="m14.722 161.281v-147.143c0-2.722 2.206-4.928 4.928-4.928h60.144c2.722 0 4.928 2.206 4.928 4.928v147.144c0 2.722-2.206 4.928-4.928 4.928h-60.143c-2.722 0-4.929-2.207-4.929-4.929z" fill="#e0ebfc"/><path d="m96.126 15.949h147.144c2.722 0 4.928 2.206 4.928 4.928v60.144c0 2.722-2.206 4.928-4.928 4.928h-147.144c-2.722 0-4.928-2.206-4.928-4.928v-60.144c0-2.722 2.206-4.928 4.928-4.928z" fill="#6bdddd"/><path d="m241.278 94.719v147.144c0 2.722-2.206 4.928-4.928 4.928h-60.144c-2.722 0-4.928-2.206-4.928-4.928v-147.144c0-2.722 2.206-4.928 4.928-4.928h60.144c2.721-.001 4.928 2.206 4.928 4.928z" fill="#a4c9ff"/><path d="m159.874 242.894h-147.144c-2.722 0-4.928-2.206-4.928-4.928v-60.144c0-2.722 2.206-4.928 4.928-4.928h147.144c2.722 0 4.928 2.206 4.928 4.928v60.144c0 2.722-2.206 4.928-4.928 4.928z" fill="#4671c6"/><circle cx="127.968" cy="126.707" fill="#f9a7a7" r="60"/><path d="m243.27 87.949h-147.144c-3.82 0-6.928-3.108-6.928-6.928v-60.144c0-3.82 3.107-6.928 6.928-6.928h147.144c3.82 0 6.929 3.108 6.929 6.928v60.144c-.001 3.82-3.109 6.928-6.929 6.928zm-147.144-70c-1.614 0-2.928 1.313-2.928 2.928v60.144c0 1.614 1.313 2.928 2.928 2.928h147.144c1.615 0 2.929-1.313 2.929-2.928v-60.144c0-1.615-1.313-2.928-2.929-2.928z" fill="#3762cc"/><path d="m183.315 8.757h-6.542c-2.952 0-5.344 2.393-5.344 5.344v8.551 22.23 26.738c0 10.036 8.136 18.171 18.171 18.171h32.582c10.036 0 18.171-8.135 18.171-18.171v-26.738-22.23-8.551c0-2.952-2.393-5.344-5.344-5.344h-6.542c-2.952 0-5.344 2.393-5.344 5.344 0-2.952-2.393-5.344-5.344-5.344h-6.542c-2.952 0-5.344 2.393-5.344 5.344 0-2.952-2.393-5.344-5.344-5.344h-6.542c-2.952 0-5.344 2.393-5.344 5.344-.004-2.952-2.396-5.344-5.348-5.344z" fill="#f9cfcf"/><path d="m173.261 79.578-15.614-30.785c-.608-1.199-.925-2.524-.925-3.868v-17.726c0-1.921 1.557-3.478 3.478-3.478 6.201 0 11.228 5.027 11.228 11.228v27.251c0 6.948 1.833 17.378 1.833 17.378z" fill="#f9cfcf"/><g fill="#3762cc"><path d="m171.429 46.882c-1.104 0-2-.896-2-2v-30.781c0-4.05 3.294-7.345 7.344-7.345h6.543c4.05 0 7.344 3.295 7.344 7.345 0 1.104-.896 2-2 2s-2-.896-2-2c0-1.844-1.5-3.345-3.344-3.345h-6.543c-1.844 0-3.344 1.5-3.344 3.345v30.781c0 1.104-.896 2-2 2z"/><path d="m205.891 28.819c-1.104 0-2-.896-2-2v-12.718c0-1.844-1.5-3.345-3.345-3.345h-6.542c-1.845 0-3.345 1.5-3.345 3.345v12.718c0 1.104-.896 2-2 2s-2-.896-2-2v-12.718c0-4.05 3.295-7.345 7.345-7.345h6.542c4.05 0 7.345 3.295 7.345 7.345v12.718c0 1.105-.896 2-2 2z"/><path d="m223.121 28.819c-1.104 0-2-.896-2-2v-12.718c0-1.844-1.5-3.345-3.344-3.345h-6.543c-1.844 0-3.344 1.5-3.344 3.345v12.718c0 1.104-.896 2-2 2s-2-.896-2-2v-12.718c0-4.05 3.294-7.345 7.344-7.345h6.543c4.05 0 7.344 3.295 7.344 7.345v12.718c0 1.105-.895 2-2 2z"/><path d="m240.353 46.882c-1.104 0-2-.896-2-2v-30.781c0-1.844-1.5-3.345-3.345-3.345h-6.542c-1.845 0-3.345 1.5-3.345 3.345v12.718c0 1.104-.896 2-2 2s-2-.896-2-2v-12.718c0-4.05 3.295-7.345 7.345-7.345h6.542c4.05 0 7.345 3.295 7.345 7.345v30.781c0 1.104-.896 2-2 2z"/><path d="m173.262 81.578c-.735 0-1.435-.408-1.784-1.096l-15.614-30.786c-.746-1.471-1.141-3.121-1.141-4.772v-17.725c0-3.021 2.457-5.479 5.478-5.479 7.294 0 13.229 5.934 13.229 13.228v27.252c0 6.696 1.785 16.929 1.803 17.031.172.976-.397 1.93-1.338 2.244-.209.069-.423.103-.633.103zm-13.061-55.857c-.815 0-1.479.663-1.479 1.479v17.725c0 1.025.245 2.05.708 2.962l10.308 20.322c-.185-2.067-.31-4.149-.31-6.009v-27.251c.001-5.089-4.139-9.228-9.227-9.228z"/><path d="m222.182 91.791h-32.582c-11.122 0-20.171-9.049-20.171-20.171v-57.519c0-4.05 3.294-7.345 7.344-7.345h6.543c2.104 0 4.004.889 5.344 2.312 1.341-1.423 3.24-2.312 5.345-2.312h6.542c2.104 0 4.005.89 5.345 2.312 1.34-1.422 3.24-2.312 5.345-2.312h6.542c2.104 0 4.004.889 5.344 2.312 1.341-1.423 3.24-2.312 5.345-2.312h6.542c4.05 0 7.345 3.295 7.345 7.345v57.519c-.002 11.122-9.051 20.171-20.173 20.171zm-45.41-81.035c-1.844 0-3.344 1.5-3.344 3.345v57.519c0 8.917 7.254 16.171 16.171 16.171h32.582c8.917 0 16.171-7.254 16.171-16.171v-57.519c0-1.844-1.5-3.345-3.345-3.345h-6.542c-1.845 0-3.345 1.5-3.345 3.345 0 1.104-.896 2-2 2s-2-.896-2-2c0-1.844-1.5-3.345-3.344-3.345h-6.542c-1.845 0-3.345 1.5-3.345 3.345 0 1.104-.896 2-2 2s-2-.896-2-2c0-1.844-1.5-3.345-3.345-3.345h-6.542c-1.845 0-3.345 1.5-3.345 3.345 0 1.104-.896 2-2 2s-2-.896-2-2c0-1.844-1.5-3.345-3.344-3.345z"/><path d="m79.794 168.209h-60.144c-3.82 0-6.928-3.108-6.928-6.928v-147.143c0-3.82 3.107-6.928 6.928-6.928h60.144c3.82 0 6.929 3.108 6.929 6.928v147.144c0 3.82-3.109 6.927-6.929 6.927zm-60.144-157c-1.614 0-2.928 1.313-2.928 2.928v147.144c0 1.615 1.313 2.928 2.928 2.928h60.144c1.615 0 2.929-1.313 2.929-2.928v-147.143c0-1.615-1.313-2.928-2.929-2.928h-60.144z"/></g><path d="m10.164 73.911v6.542c0 2.952 2.393 5.344 5.344 5.344h8.551 22.23 26.738c10.036 0 18.171-8.136 18.171-18.171v-32.581c0-10.036-8.135-18.171-18.171-18.171h-26.738-22.23-8.551c-2.952 0-5.344 2.393-5.344 5.344v6.542c0 2.952 2.393 5.344 5.344 5.344-2.952 0-5.344 2.393-5.344 5.344v6.542c0 2.952 2.393 5.344 5.344 5.344-2.952 0-5.344 2.393-5.344 5.344v6.542c0 2.952 2.393 5.344 5.344 5.344-2.951.003-5.344 2.396-5.344 5.347z" fill="#f9cfcf"/><path d="m80.985 83.965-30.785 15.614c-1.199.608-2.524.925-3.868.925h-17.725c-1.921 0-3.478-1.557-3.478-3.478 0-6.201 5.027-11.228 11.228-11.228h27.252c6.946 0 17.376-1.833 17.376-1.833z" fill="#f9cfcf"/><path d="m46.289 87.798h-30.78c-4.05 0-7.345-3.294-7.345-7.344v-6.542c0-4.05 3.295-7.344 7.345-7.344 1.104 0 2 .896 2 2s-.896 2-2 2c-1.845 0-3.345 1.5-3.345 3.344v6.542c0 1.844 1.5 3.344 3.345 3.344h30.78c1.104 0 2 .896 2 2s-.895 2-2 2z" fill="#3762cc"/><path d="m28.227 70.567h-12.718c-4.05 0-7.345-3.294-7.345-7.344v-6.543c0-4.05 3.295-7.344 7.345-7.344h12.718c1.104 0 2 .896 2 2s-.896 2-2 2h-12.718c-1.845 0-3.345 1.5-3.345 3.344v6.542c0 1.844 1.5 3.344 3.345 3.344h12.718c1.104 0 2 .896 2 2s-.896 2.001-2 2.001z" fill="#3762cc"/><path d="m28.227 53.336h-12.718c-4.05 0-7.345-3.294-7.345-7.344v-6.542c0-4.05 3.295-7.344 7.345-7.344h12.718c1.104 0 2 .896 2 2s-.896 2-2 2h-12.718c-1.845 0-3.345 1.5-3.345 3.344v6.542c0 1.844 1.5 3.344 3.345 3.344h12.718c1.104 0 2 .896 2 2s-.896 2-2 2z" fill="#3762cc"/><path d="m28.227 36.105h-12.718c-4.05 0-7.345-3.294-7.345-7.344v-6.542c0-4.05 3.295-7.344 7.345-7.344h30.78c1.104 0 2 .896 2 2s-.896 2-2 2h-30.78c-1.845 0-3.345 1.5-3.345 3.344v6.542c0 1.844 1.5 3.344 3.345 3.344h12.718c1.104 0 2 .896 2 2s-.896 2-2 2z" fill="#3762cc"/><path d="m46.332 102.504h-17.726c-3.021 0-5.479-2.458-5.479-5.478 0-7.294 5.935-13.228 13.229-13.228h27.251c6.696 0 16.929-1.785 17.031-1.803.986-.17 1.931.398 2.244 1.337.313.94-.109 1.968-.993 2.416l-30.785 15.614c-1.47.747-3.121 1.142-4.772 1.142zm-9.976-14.706c-5.089 0-9.229 4.14-9.229 9.228 0 .815.663 1.478 1.479 1.478h17.726c1.025 0 2.05-.245 2.963-.708l20.322-10.307c-2.067.185-4.15.31-6.01.31h-27.251z" fill="#3762cc"/><path d="m73.027 87.798h-57.518c-4.05 0-7.345-3.294-7.345-7.344v-6.542c0-2.104.89-4.004 2.312-5.344-1.422-1.34-2.312-3.24-2.312-5.344v-6.544c0-2.104.89-4.004 2.312-5.344-1.422-1.34-2.312-3.241-2.312-5.345v-6.542c0-2.104.89-4.004 2.312-5.344-1.422-1.34-2.312-3.24-2.312-5.344v-6.542c0-4.05 3.295-7.344 7.345-7.344h57.519c11.122 0 20.171 9.049 20.171 20.171v32.582c-.001 11.121-9.05 20.17-20.172 20.17zm-57.518-17.231c-1.845 0-3.345 1.5-3.345 3.344v6.542c0 1.844 1.5 3.344 3.345 3.344h57.519c8.917 0 16.171-7.254 16.171-16.171v-32.581c0-8.917-7.254-16.171-16.171-16.171h-57.519c-1.845 0-3.345 1.5-3.345 3.344v6.542c0 1.844 1.5 3.344 3.345 3.344 1.104 0 2 .896 2 2s-.896 2-2 2c-1.845 0-3.345 1.5-3.345 3.344v6.542c0 1.844 1.5 3.345 3.345 3.345 1.104 0 2 .896 2 2s-.896 2-2 2c-1.845 0-3.345 1.5-3.345 3.344v6.542c0 1.844 1.5 3.344 3.345 3.344 1.104 0 2 .896 2 2s-.896 2.002-2 2.002z" fill="#3762cc"/><path d="m159.874 244.894h-147.144c-3.82 0-6.929-3.108-6.929-6.928v-60.144c0-3.82 3.108-6.928 6.929-6.928h147.144c3.82 0 6.928 3.108 6.928 6.928v60.144c0 3.82-3.108 6.928-6.928 6.928zm-147.144-70c-1.615 0-2.929 1.313-2.929 2.928v60.144c0 1.614 1.313 2.928 2.929 2.928h147.144c1.614 0 2.928-1.313 2.928-2.928v-60.144c0-1.615-1.313-2.928-2.928-2.928z" fill="#3762cc"/><path d="m72.685 247.243h6.542c2.952 0 5.344-2.393 5.344-5.344v-8.551-22.23-26.738c0-10.036-8.136-18.171-18.171-18.171h-32.582c-10.036 0-18.171 8.135-18.171 18.171v26.738 22.23 8.551c0 2.952 2.393 5.344 5.344 5.344h6.542c2.952 0 5.344-2.393 5.344-5.344 0 2.952 2.393 5.344 5.344 5.344h6.542c2.952 0 5.344-2.393 5.344-5.344 0 2.952 2.393 5.344 5.344 5.344h6.542c2.952 0 5.344-2.393 5.344-5.344.003 2.952 2.396 5.344 5.348 5.344z" fill="#f9cfcf"/><path d="m82.739 176.422 15.614 30.785c.608 1.199.925 2.524.925 3.868v17.725c0 1.921-1.557 3.478-3.478 3.478-6.201 0-11.228-5.027-11.228-11.228v-27.25c-.001-6.948-1.833-17.378-1.833-17.378z" fill="#f9cfcf"/><path d="m79.227 249.244h-6.542c-4.05 0-7.344-3.295-7.344-7.345 0-1.104.896-2 2-2s2 .896 2 2c0 1.844 1.5 3.345 3.344 3.345h6.542c1.845 0 3.345-1.5 3.345-3.345v-30.781c0-1.104.896-2 2-2s2 .896 2 2v30.781c-.001 4.05-3.296 7.345-7.345 7.345z" fill="#3762cc"/><path d="m61.996 249.244h-6.542c-4.05 0-7.345-3.295-7.345-7.345v-12.718c0-1.104.896-2 2-2s2 .896 2 2v12.718c0 1.844 1.5 3.345 3.345 3.345h6.542c1.845 0 3.345-1.5 3.345-3.345v-12.718c0-1.104.896-2 2-2s2 .896 2 2v12.718c0 4.05-3.295 7.345-7.345 7.345z" fill="#3762cc"/><path d="m44.765 249.244h-6.542c-4.05 0-7.345-3.295-7.345-7.345v-12.718c0-1.104.896-2 2-2s2 .896 2 2v12.718c0 1.844 1.5 3.345 3.345 3.345h6.542c1.845 0 3.345-1.5 3.345-3.345v-12.718c0-1.104.896-2 2-2s2 .896 2 2v12.718c-.001 4.05-3.296 7.345-7.345 7.345z" fill="#3762cc"/><path d="m27.534 249.244h-6.542c-4.05 0-7.345-3.295-7.345-7.345v-30.781c0-1.104.896-2 2-2s2 .896 2 2v30.781c0 1.844 1.5 3.345 3.345 3.345h6.542c1.844 0 3.344-1.5 3.344-3.345v-12.718c0-1.104.896-2 2-2s2 .896 2 2v12.718c0 4.05-3.294 7.345-7.344 7.345z" fill="#3762cc"/><path d="m95.799 234.279c-7.294 0-13.228-5.934-13.228-13.228v-27.251c0-6.696-1.785-16.929-1.803-17.031-.172-.976.397-1.93 1.338-2.244.937-.313 1.967.108 2.416.993l15.614 30.786c.746 1.471 1.141 3.121 1.141 4.772v17.725c0 3.021-2.458 5.478-5.478 5.478zm-9.537-46.488c.185 2.067.31 4.149.31 6.009v27.251c0 5.088 4.14 9.228 9.228 9.228.815 0 1.479-.663 1.479-1.479v-17.725c0-1.025-.245-2.05-.708-2.962z" fill="#3762cc"/><path d="m79.227 249.244h-6.542c-2.104 0-4.004-.889-5.344-2.312-1.341 1.423-3.24 2.312-5.345 2.312h-6.542c-2.104 0-4.005-.89-5.345-2.312-1.34 1.422-3.24 2.312-5.345 2.312h-6.542c-2.104 0-4.004-.889-5.345-2.312-1.34 1.423-3.24 2.312-5.344 2.312h-6.542c-4.05 0-7.345-3.295-7.345-7.345v-57.519c0-11.122 9.049-20.171 20.171-20.171h32.583c11.122 0 20.171 9.049 20.171 20.171v57.519c0 4.05-3.295 7.345-7.344 7.345zm-11.886-9.345c1.104 0 2 .896 2 2 0 1.844 1.5 3.345 3.344 3.345h6.542c1.845 0 3.345-1.5 3.345-3.345v-57.519c0-8.917-7.254-16.171-16.171-16.171h-32.583c-8.917 0-16.171 7.254-16.171 16.171v57.519c0 1.844 1.5 3.345 3.345 3.345h6.542c1.844 0 3.344-1.5 3.344-3.345 0-1.104.896-2 2-2s2 .896 2 2c0 1.844 1.5 3.345 3.345 3.345h6.542c1.845 0 3.345-1.5 3.345-3.345 0-1.104.896-2 2-2s2 .896 2 2c0 1.844 1.5 3.345 3.345 3.345h6.542c1.845 0 3.345-1.5 3.345-3.345-.001-1.105.894-2 1.999-2z" fill="#3762cc"/><path d="m142.429 131.301c3.192-3.487 5.141-8.131 5.141-13.231 0-10.826-8.776-19.602-19.602-19.602s-19.602 8.776-19.602 19.602c0 5.1 1.949 9.744 5.141 13.231h-.051c3.242 3.838 5.201 8.794 5.201 14.211 0 .329-.011.655-.025.98h1.985 6.371 1.96 5.881 2.475c-.014-.325-.025-.651-.025-.98 0-5.417 1.959-10.373 5.201-14.211z" fill="#ffea92"/><path d="m142.479 99.666.081.081c1.126 1.126 2.951 1.126 4.077 0l6.318-6.318c1.126-1.126 1.126-2.951 0-4.077l-.081-.081c-1.126-1.126-2.951-1.126-4.077 0l-6.318 6.318c-1.126 1.126-1.126 2.951 0 4.077z" fill="#ffea92"/><path d="m128.022 93.94h-.106c-1.594 0-2.887-1.293-2.887-2.887v-8.967c0-1.594 1.293-2.887 2.887-2.887h.106c1.594 0 2.887 1.293 2.887 2.887v8.967c0 1.594-1.293 2.887-2.887 2.887z" fill="#ffea92"/><path d="m113.703 99.666-.081.081c-1.126 1.126-2.951 1.126-4.077 0l-6.318-6.318c-1.126-1.126-1.126-2.951 0-4.077l.081-.081c1.126-1.126 2.951-1.126 4.077 0l6.318 6.318c1.126 1.126 1.126 2.951 0 4.077z" fill="#ffea92"/><path d="m149.04 108.189v-.114c0-1.592 1.291-2.883 2.883-2.883h8.935c1.592 0 2.883 1.291 2.883 2.883v.114c0 1.592-1.291 2.883-2.883 2.883h-8.935c-1.592 0-2.883-1.291-2.883-2.883z" fill="#ffea92"/><path d="m92.195 108.189v-.114c0-1.592 1.291-2.883 2.883-2.883h8.935c1.592 0 2.883 1.291 2.883 2.883v.114c0 1.592-1.291 2.883-2.883 2.883h-8.935c-1.592 0-2.883-1.291-2.883-2.883z" fill="#ffea92"/><path d="m137.676 152.373h-19.415c-.593 0-1.074-.481-1.074-1.074v-3.733c0-.593.481-1.074 1.074-1.074h19.415c.593 0 1.074.481 1.074 1.074v3.733c-.001.593-.481 1.074-1.074 1.074z" fill="#6bdddd"/><path d="m136.072 158.253h-15.717c-.938 0-1.698-.76-1.698-1.698v-4.183h19.112v4.183c0 .938-.76 1.698-1.697 1.698z" fill="#6bdddd"/><path d="m129.928 166.094h-3.92c-3.248 0-5.881-2.633-5.881-5.881v-1.96h15.681v1.96c.001 3.248-2.632 5.881-5.88 5.881z" fill="#6bdddd"/><path d="m137.676 154.373h-19.415c-1.694 0-3.073-1.379-3.073-3.074v-3.733c0-1.695 1.379-3.074 3.073-3.074h19.415c1.694 0 3.073 1.379 3.073 3.074v3.733c0 1.695-1.379 3.074-3.073 3.074zm-18.488-4h17.562v-1.881h-17.562z" fill="#3762cc"/><path d="m136.071 160.253h-15.717c-2.039 0-3.697-1.659-3.697-3.697v-4.183c0-1.104.896-2 2-2h19.112c1.104 0 2 .896 2 2v4.183c.001 2.038-1.659 3.697-3.698 3.697zm-15.414-4h15.112v-1.88h-15.112z" fill="#3762cc"/><path d="m129.929 168.094h-3.921c-4.345 0-7.88-3.535-7.88-7.88v-1.96c0-1.104.896-2 2-2h15.681c1.104 0 2 .896 2 2v1.96c0 4.345-3.536 7.88-7.88 7.88zm-7.801-7.841c.021 2.122 1.754 3.841 3.88 3.841h3.921c2.126 0 3.858-1.719 3.88-3.841z" fill="#3762cc"/><path d="m127.968 119.685c-3.519 0-6.371 2.852-6.371 6.371 0 2.679 1.655 4.967 3.997 5.909v14.527h4.747v-14.527c2.342-.942 3.997-3.23 3.997-5.909.001-3.518-2.851-6.371-6.37-6.371zm0 9.963c-1.981 0-3.592-1.611-3.592-3.592s1.611-3.592 3.592-3.592 3.592 1.611 3.592 3.592-1.611 3.592-3.592 3.592z" fill="#f9a7a7"/><path d="m137.304 148.492h-18.671c-.545 0-1.066-.223-1.443-.616-.378-.394-.578-.924-.555-1.468.013-.297.022-.595.022-.896 0-4.722-1.679-9.31-4.729-12.921-.071-.085-.136-.175-.191-.269-3.467-3.944-5.371-8.988-5.371-14.252 0-11.912 9.69-21.602 21.603-21.602 11.911 0 21.602 9.69 21.602 21.602 0 5.264-1.904 10.308-5.371 14.252-.056.094-.12.184-.191.269-3.05 3.611-4.729 8.199-4.729 12.921 0 .301.01.599.022.896.023.544-.177 1.075-.555 1.468-.377.393-.898.616-1.443.616zm-16.668-4h14.665c.221-5.159 2.106-10.134 5.375-14.149.074-.14.167-.272.277-.393 2.978-3.251 4.617-7.471 4.617-11.88 0-9.706-7.896-17.602-17.602-17.602s-17.603 7.896-17.603 17.602c0 4.41 1.64 8.629 4.617 11.88.113.124.209.259.286.403 3.264 4.013 5.147 8.983 5.368 14.139z" fill="#3762cc"/><path d="m236.35 248.791h-60.144c-3.82 0-6.929-3.108-6.929-6.928v-147.144c0-3.82 3.108-6.928 6.929-6.928h60.144c3.82 0 6.928 3.108 6.928 6.928v147.144c-.001 3.82-3.108 6.928-6.928 6.928zm-60.144-157c-1.615 0-2.929 1.313-2.929 2.928v147.144c0 1.615 1.313 2.928 2.929 2.928h60.144c1.614 0 2.928-1.313 2.928-2.928v-147.144c0-1.615-1.313-2.928-2.928-2.928z" fill="#3762cc"/><path d="m245.836 182.152v-6.542c0-2.952-2.393-5.344-5.344-5.344h-8.551-22.23-26.738c-10.036 0-18.171 8.136-18.171 18.171v32.582c0 10.036 8.135 18.171 18.171 18.171h26.738 22.23 8.551c2.952 0 5.344-2.393 5.344-5.344v-6.542c0-2.952-2.393-5.344-5.344-5.344 2.952 0 5.344-2.393 5.344-5.344v-6.542c0-2.952-2.393-5.344-5.344-5.344 2.952 0 5.344-2.393 5.344-5.344v-6.542c0-2.952-2.393-5.344-5.344-5.344 2.951-.004 5.344-2.397 5.344-5.348z" fill="#f9cfcf"/><path d="m175.015 172.098 30.785-15.614c1.199-.608 2.524-.925 3.868-.925h17.725c1.921 0 3.478 1.557 3.478 3.478 0 6.201-5.027 11.228-11.228 11.228h-27.252c-6.946 0-17.376 1.833-17.376 1.833z" fill="#f9cfcf"/><path d="m240.491 189.496c-1.104 0-2-.896-2-2s.896-2 2-2c1.845 0 3.345-1.5 3.345-3.344v-6.542c0-1.844-1.5-3.344-3.345-3.344h-30.78c-1.104 0-2-.896-2-2s.896-2 2-2h30.78c4.05 0 7.345 3.294 7.345 7.344v6.542c0 4.05-3.295 7.344-7.345 7.344z" fill="#3762cc"/><path d="m240.491 206.727h-12.718c-1.104 0-2-.896-2-2s.896-2 2-2h12.718c1.845 0 3.345-1.5 3.345-3.344v-6.542c0-1.844-1.5-3.344-3.345-3.344h-12.718c-1.104 0-2-.896-2-2s.896-2 2-2h12.718c4.05 0 7.345 3.294 7.345 7.344v6.542c0 4.05-3.295 7.344-7.345 7.344z" fill="#3762cc"/><path d="m240.491 223.958h-12.718c-1.104 0-2-.896-2-2s.896-2 2-2h12.718c1.845 0 3.345-1.5 3.345-3.344v-6.542c0-1.844-1.5-3.344-3.345-3.344h-12.718c-1.104 0-2-.896-2-2s.896-2 2-2h12.718c4.05 0 7.345 3.294 7.345 7.344v6.542c0 4.05-3.295 7.344-7.345 7.344z" fill="#3762cc"/><path d="m240.491 241.189h-30.78c-1.104 0-2-.896-2-2s.896-2 2-2h30.78c1.845 0 3.345-1.5 3.345-3.344v-6.542c0-1.844-1.5-3.344-3.345-3.344h-12.718c-1.104 0-2-.896-2-2s.896-2 2-2h12.718c4.05 0 7.345 3.294 7.345 7.344v6.542c0 4.05-3.295 7.344-7.345 7.344z" fill="#3762cc"/><path d="m175.014 174.098c-.848 0-1.62-.54-1.896-1.368-.313-.94.109-1.968.993-2.416l30.785-15.614c1.472-.747 3.122-1.142 4.772-1.142h17.726c3.021 0 5.479 2.458 5.479 5.479 0 7.294-5.935 13.228-13.229 13.228h-27.251c-6.696 0-16.929 1.785-17.031 1.803-.118.02-.234.03-.348.03zm34.654-16.539c-1.024 0-2.049.245-2.963.709l-20.322 10.307c2.067-.185 4.15-.31 6.01-.31h27.251c5.089 0 9.229-4.14 9.229-9.228 0-.815-.663-1.479-1.479-1.479h-17.726z" fill="#3762cc"/><path d="m240.491 241.189h-57.519c-11.122 0-20.171-9.049-20.171-20.171v-32.582c0-11.122 9.049-20.171 20.171-20.171h57.519c4.05 0 7.345 3.294 7.345 7.344v6.542c0 2.104-.89 4.004-2.312 5.344 1.422 1.34 2.312 3.24 2.312 5.344v6.542c0 2.104-.89 4.004-2.312 5.344 1.422 1.34 2.312 3.24 2.312 5.344v6.542c0 2.104-.89 4.004-2.312 5.344 1.422 1.34 2.312 3.24 2.312 5.344v6.542c0 4.054-3.295 7.348-7.345 7.348zm-57.518-68.924c-8.917 0-16.171 7.254-16.171 16.171v32.582c0 8.917 7.254 16.171 16.171 16.171h57.519c1.845 0 3.345-1.5 3.345-3.344v-6.542c0-1.844-1.5-3.344-3.345-3.344-1.104 0-2-.896-2-2s.896-2 2-2c1.845 0 3.345-1.5 3.345-3.344v-6.542c0-1.844-1.5-3.344-3.345-3.344-1.104 0-2-.896-2-2s.896-2 2-2c1.845 0 3.345-1.5 3.345-3.344v-6.542c0-1.844-1.5-3.344-3.345-3.344-1.104 0-2-.896-2-2s.896-2 2-2c1.845 0 3.345-1.5 3.345-3.344v-6.542c0-1.844-1.5-3.344-3.345-3.344h-57.519z" fill="#3762cc"/></svg>